<svg width="218" height="218" viewBox="0 0 218 218" fill="none" xmlns="http://www.w3.org/2000/svg">
<path d="M108.896 213.792C166.828 213.792 213.792 166.828 213.792 108.896C213.792 50.9635 166.828 4 108.896 4C50.9635 4 4 50.9635 4 108.896C4 166.828 50.9635 213.792 108.896 213.792Z" fill="white" stroke="#6C93C7" stroke-width="6.8992" stroke-linecap="round" stroke-linejoin="round"/>
<path d="M173.524 110.794L111.009 6.10938L47.0156 110.794L110.305 151.063L173.524 110.794Z" stroke="#6C93C7" stroke-width="6.8992" stroke-linecap="round" stroke-linejoin="round"/>
<path d="M111.009 6.10938L110.305 66.231V151.063" stroke="#6C93C7" stroke-width="6.8992" stroke-linecap="round" stroke-linejoin="round"/>
<path d="M173.524 110.796L110.305 82.8477L47.0156 110.796" stroke="#6C93C7" stroke-width="6.8992" stroke-linecap="round" stroke-linejoin="round"/>
<path d="M110.657 166.483L173.524 123.68L110.657 212.243L47.0156 123.68L110.657 166.483Z" stroke="#6C93C7" stroke-width="6.8992" stroke-linecap="round" stroke-linejoin="round"/>
<path d="M110.656 212.24V171.62V166.48" stroke="#6C93C7" stroke-width="6.8992" stroke-linecap="round" stroke-linejoin="round"/>
</svg>
