<?xml version="1.0" encoding="UTF-8" standalone="no"?>
<svg xmlns="http://www.w3.org/2000/svg" version="1.1" viewBox="0 -0.05 20 5.8" height="5.85" width="20">
  <path d="M 10 0.30078125 L 8.2988281 0.60546875 L 6.2246094 1.7285156 L 4.2363281 3.8476562 L 2.2050781 5.0136719 L 0 5.1621094 L 0 5.75 L 10 5.75 L 20 5.75 L 20 5.1621094 L 17.794922 5.0136719 L 15.763672 3.8476562 L 13.775391 1.7285156 L 11.701172 0.60546875 L 10 0.30078125 z " fill="#eee6f7" stroke="none" />
  <path d="m 20,5.16199 c -3.238867,0 -4.615384,-1.568383 -5.101214,-2.313366 C 14.412956,2.103641 12.510122,0.30000001 10,0.30000001 M 0,5.16199 c 3.2388665,0 4.5412102,-1.596641 5.1012147,-2.313366 C 5.6612192,2.131899 7.4898788,0.30000001 10,0.30000001" fill="none" stroke="black" stroke-width="0.7" />
</svg>
