<?xml version="1.0" encoding="UTF-8" standalone="no"?>
<svg xmlns:dc="http://purl.org/dc/elements/1.1/" xmlns:cc="http://creativecommons.org/ns#" xmlns:rdf="http://www.w3.org/1999/02/22-rdf-syntax-ns#" xmlns:svg="http://www.w3.org/2000/svg" xmlns="http://www.w3.org/2000/svg" id="svg859" version="1.1" viewBox="0 0 20 5.75" height="5.75" width="20">
  <path d="M 10 0.30078125 L 8.2988281 0.60546875 L 6.2246094 1.7285156 L 4.2363281 3.8476562 L 2.2050781 5.0136719 L 0 5.1621094 L 0 5.75 L 10 5.75 L 20 5.75 L 20 5.1621094 L 17.794922 5.0136719 L 15.763672 3.8476562 L 13.775391 1.7285156 L 11.701172 0.60546875 L 10 0.30078125 z " style="fill:#f2f1fb;stroke-width:1px" />
  <path d="m 20,5.16199 c -3.238867,0 -4.615384,-1.568383 -5.101214,-2.313366 C 14.412956,2.103641 12.510122,0.30000001 10,0.30000001 M 0,5.16199 c 3.2388665,0 4.5412102,-1.596641 5.1012147,-2.313366 C 5.6612192,2.131899 7.4898788,0.30000001 10,0.30000001" style="fill:none;stroke:#000000;stroke-width:0.6" />
</svg>
