<svg width="17" height="15" viewBox="0 0 17 15" fill="none" xmlns="http://www.w3.org/2000/svg">
	<g clip-path="url(#clip0_674_875)">
		<path d="M15.551 10.9819C15.5409 10.9888 15.5308 10.9962 15.5202 11.0026C15.51 11.0095 15.4994 11.016 15.4888 11.0229C15.4691 11.0355 15.4488 11.0476 15.4281 11.0592C15.4257 11.0605 15.4233 11.0618 15.4209 11.0636C15.404 11.0731 15.3871 11.0826 15.3698 11.0916C15.3442 11.1055 15.3192 11.1184 15.2932 11.1314C15.1168 11.2195 14.9312 11.2904 14.7418 11.3531C14.563 11.4118 14.3818 11.4633 14.1992 11.5091C13.9375 11.5747 13.6724 11.6292 13.405 11.6767C13.1452 11.7234 12.8845 11.7627 12.6228 11.7968C12.3611 11.831 12.0985 11.8595 11.8353 11.8841C11.7491 11.8923 11.6628 11.8997 11.5765 11.907C11.4035 11.9213 11.2305 11.9334 11.0575 11.9437C10.9708 11.9489 10.884 11.9537 10.7977 11.958C10.6035 11.9679 10.4093 11.9753 10.2151 11.9809C10.1799 11.9818 10.1447 11.9831 10.1091 11.9839C10.0768 11.9848 10.0445 11.9857 10.0117 11.9865C10.0912 11.8984 10.1708 11.8107 10.2435 11.7178C10.2541 11.7061 10.2647 11.6944 10.2749 11.6823C10.4392 11.4844 10.5963 11.2822 10.7467 11.0761C10.7621 11.0752 10.7775 11.0748 10.7924 11.0739C10.8879 11.0692 10.9833 11.0636 11.0787 11.0579C11.151 11.0536 11.2233 11.0489 11.2956 11.0437C11.8011 11.0087 12.3047 10.9586 12.8059 10.8881C12.952 10.8678 13.097 10.8454 13.2416 10.8216C13.5799 10.7654 13.9153 10.698 14.2459 10.6133C14.3187 10.5947 14.391 10.5753 14.4633 10.555C14.4994 10.5446 14.5356 10.5342 14.5717 10.5234C14.6262 10.5321 14.6758 10.5524 14.7269 10.5692C14.7717 10.5839 14.8165 10.5995 14.8614 10.6155C14.9881 10.6604 15.1124 10.7101 15.2329 10.7676C15.2806 10.79 15.3274 10.8138 15.3736 10.8389C15.4349 10.8721 15.4946 10.9071 15.5505 10.9473C15.5669 10.959 15.5717 10.9637 15.5655 10.9707C15.5626 10.9741 15.5577 10.9776 15.55 10.9828L15.551 10.9819Z" fill="#F1ECE2"/>
		<path d="M10.8658 13.0694C10.8557 13.0758 10.8446 13.0758 10.834 13.0718C10.8369 13.0699 10.8393 13.0689 10.8417 13.0679C10.846 13.0664 10.8499 13.0664 10.8542 13.0664C10.8581 13.0664 10.8624 13.0674 10.8663 13.0694H10.8658Z" fill="#5E93FF"/>
		<path d="M10.8213 13.0718C10.8082 13.0777 10.7952 13.0782 10.7812 13.0742C10.7943 13.0663 10.8078 13.0673 10.8213 13.0718Z" fill="#5E93FF"/>
		<path d="M10.7705 13.0741C10.7575 13.08 10.7444 13.0805 10.7305 13.0766C10.7435 13.0682 10.7565 13.0692 10.7705 13.0741Z" fill="#5E93FF"/>
		<path d="M10.7192 13.0758C10.7062 13.0822 10.6932 13.0822 10.6797 13.0778C10.6797 13.0778 10.6807 13.0778 10.6811 13.0773C10.6937 13.0709 10.7067 13.0709 10.7192 13.0758Z" fill="#5E93FF"/>
		<path d="M10.6419 13.0752C10.6506 13.0733 10.6597 13.0742 10.6689 13.0777C10.6559 13.0841 10.6424 13.0841 10.6289 13.0802C10.6332 13.0777 10.6376 13.0762 10.6419 13.0752Z" fill="#5E93FF"/>
		<path d="M10.5969 13.0747C10.6037 13.0747 10.6104 13.0762 10.6176 13.0782C10.6046 13.0841 10.5916 13.0846 10.5781 13.0801C10.5844 13.0762 10.5907 13.0747 10.5969 13.0742V13.0747Z" fill="#5E93FF"/>
		<path d="M10.5558 13.079C10.5591 13.0795 10.562 13.0805 10.5649 13.0815C10.5524 13.0874 10.5389 13.0879 10.5254 13.084C10.5345 13.0781 10.5442 13.0771 10.5538 13.079C10.5538 13.079 10.5543 13.079 10.5548 13.079H10.5553H10.5558Z" fill="#5E93FF"/>
		<path d="M10.514 13.0837C10.4986 13.0907 10.4827 13.0902 10.4668 13.0857C10.4822 13.0783 10.4981 13.0788 10.514 13.0837Z" fill="#5E93FF"/>
		<path d="M10.4555 13.0859C10.4425 13.0928 10.4295 13.0918 10.416 13.0879C10.4285 13.0805 10.442 13.0805 10.4555 13.0859Z" fill="#5E93FF"/>
		<path d="M13.8383 10.3277C13.8446 10.3286 13.8518 10.3286 13.8585 10.3296C13.8672 10.3306 13.8759 10.3331 13.8826 10.3405C13.8648 10.339 13.8475 10.3351 13.832 10.3262C13.833 10.3262 13.8344 10.3262 13.8354 10.3267C13.8364 10.3267 13.8373 10.3267 13.8388 10.3272L13.8383 10.3277Z" fill="#5E93FF"/>
		<path d="M6.49748 14.1387C6.49893 14.1416 6.50037 14.1446 6.50134 14.1471L6.23242 14.1481C6.23387 14.1451 6.23531 14.1421 6.23676 14.1392C6.25845 14.1392 6.28013 14.1392 6.30182 14.1392C6.36688 14.1392 6.43194 14.1392 6.497 14.1392L6.49748 14.1387Z" fill="#3180F4"/>
		<path d="M14.5731 10.5231C14.537 10.5339 14.5013 10.5442 14.4647 10.5546C14.3924 10.5749 14.3201 10.5944 14.2473 10.6129C13.9162 10.6976 13.5813 10.765 13.243 10.8212C13.0984 10.8454 12.9529 10.8674 12.8073 10.8878C12.3061 10.9582 11.8025 11.0083 11.297 11.0433C11.2247 11.0485 11.1524 11.0532 11.0801 11.0576C10.9847 11.0632 10.8893 11.0688 10.7938 11.0736C10.7784 11.0744 10.7635 11.0749 10.748 11.0757C10.8517 10.9336 10.9524 10.7897 11.0497 10.6436C11.1905 10.4328 11.3249 10.2189 11.4526 10.002C11.6965 10.021 11.9399 10.043 12.1832 10.0698C12.2011 10.0715 12.2189 10.075 12.2372 10.0776C12.3461 10.0845 12.4541 10.0992 12.5615 10.1134C12.6999 10.1316 12.8382 10.1515 12.976 10.1722C13.162 10.2003 13.348 10.2314 13.5326 10.2673C13.6324 10.2867 13.7317 10.3066 13.8314 10.326C13.8473 10.3338 13.8642 10.3368 13.882 10.3386C14.095 10.3874 14.3076 10.4388 14.5162 10.5006C14.5355 10.5062 14.5577 10.5079 14.5726 10.5226L14.5731 10.5231Z" fill="#FDBF41"/>
		<path d="M7.48633 11.9297C7.57211 11.9357 7.65838 11.9418 7.74416 11.947C7.65789 11.9418 7.57211 11.9357 7.48633 11.9297Z" fill="#F1ECE2"/>
		<path d="M4.73366 13.6519C4.72692 13.6519 4.72113 13.65 4.7168 13.6445C4.7168 13.6445 4.71776 13.6445 4.71824 13.6445C4.71921 13.6445 4.72017 13.6445 4.72113 13.6445C4.7221 13.6445 4.72258 13.645 4.72354 13.645C4.72403 13.645 4.72499 13.645 4.72547 13.6455C4.72644 13.6455 4.7274 13.6465 4.72836 13.647C4.72836 13.647 4.72933 13.647 4.72981 13.6475C4.73077 13.6485 4.73174 13.6495 4.7327 13.6505C4.7327 13.6505 4.7327 13.6505 4.73318 13.6505L4.73366 13.6519Z" fill="#404A5A"/>
		<path d="M4.71804 13.6466C4.71129 13.6466 4.70503 13.6451 4.70117 13.6387C4.70117 13.6387 4.70455 13.6387 4.70599 13.6387H4.70647C4.71081 13.6397 4.71467 13.6416 4.71756 13.6461C4.71756 13.6461 4.71756 13.6461 4.71756 13.6466H4.71804Z" fill="#404A5A"/>
		<path d="M4.70046 13.6397C4.69323 13.6397 4.68649 13.6393 4.68359 13.6314C4.68359 13.6314 4.68359 13.6314 4.68359 13.6309H4.68408C4.69082 13.6309 4.69709 13.6323 4.70046 13.6393V13.6397Z" fill="#404A5A"/>
		<path d="M4.68435 13.6298V13.6307C4.67761 13.6307 4.67038 13.6317 4.66797 13.6224V13.6214C4.6752 13.6204 4.68146 13.6219 4.68484 13.6298H4.68435Z" fill="#404A5A"/>
		<path d="M4.61802 13.5918C4.62284 13.5948 4.62863 13.597 4.63393 13.5991C4.63778 13.6009 4.64164 13.6022 4.64549 13.6039C4.65224 13.6069 4.65851 13.6108 4.66284 13.6164C4.66429 13.6182 4.66574 13.6207 4.66718 13.6233C4.64453 13.6216 4.62477 13.6134 4.60742 13.6004L4.61802 13.5918Z" fill="#404A5A"/>
		<path d="M6.1635 12.9411C6.1447 12.9437 6.12591 12.9463 6.10759 12.9489C6.03531 12.9575 5.96302 12.9627 5.89025 12.9644C5.86615 12.9649 5.84157 12.9653 5.81747 12.9649C5.7929 12.9649 5.7688 12.964 5.74421 12.9631C5.73361 12.9627 5.72349 12.9614 5.71289 12.9605C5.70277 12.9597 5.69216 12.9584 5.68156 12.9575C5.66807 12.9566 5.65795 12.9515 5.64783 12.9437C5.61891 12.9204 5.59144 12.8962 5.56445 12.8711C5.76398 12.897 5.9635 12.9204 6.1635 12.9415V12.9411Z" fill="#F1ECE2"/>
		<path d="M9.30377 9.91992C9.16015 9.91992 9.01654 9.92165 8.87292 9.92381C8.63389 10.2561 8.37605 10.5767 8.09461 10.8813C8.03533 10.9453 7.97557 11.0084 7.91437 11.0706C7.76015 11.2283 7.59919 11.3804 7.43051 11.5256C7.28256 11.6526 7.12979 11.7741 6.97027 11.8881C6.84593 11.9776 6.71726 12.0627 6.58377 12.1418C6.33798 12.2878 6.08015 12.4136 5.80256 12.5052C5.66185 12.5514 5.51823 12.589 5.3698 12.611C5.36161 12.6123 5.3539 12.6154 5.3457 12.6175C5.34619 12.6197 5.34715 12.6223 5.34763 12.6244C5.34811 12.6257 5.34859 12.627 5.34956 12.6283C5.36016 12.643 5.37076 12.6573 5.38185 12.6711C5.40402 12.6996 5.42715 12.7273 5.45076 12.7541C5.48643 12.7942 5.5245 12.8331 5.5645 12.8703C5.76401 12.8962 5.96352 12.9196 6.16352 12.9407C6.21702 12.9334 6.27003 12.9239 6.32256 12.9126C6.44449 12.8867 6.56304 12.8526 6.67919 12.8124C6.73702 12.7921 6.79437 12.7705 6.85075 12.7471C6.90714 12.7238 6.96304 12.6992 7.01846 12.6728C7.04256 12.6616 7.06618 12.6499 7.09027 12.6383C7.25605 12.5566 7.41509 12.465 7.56738 12.3665C7.72015 12.2675 7.86666 12.1612 8.00883 12.0497C8.02907 12.0337 8.04931 12.0178 8.06955 12.0013C8.08449 11.9892 8.09895 11.9771 8.11437 11.9646C8.20545 11.8899 8.29509 11.8129 8.38232 11.7343C8.41605 11.7036 8.44931 11.6729 8.48256 11.6414C8.59196 11.5386 8.69846 11.4336 8.80208 11.326C8.86425 11.2616 8.92497 11.1959 8.98473 11.1298C8.99196 11.122 8.99919 11.1138 9.00642 11.1056C9.04738 11.0598 9.08786 11.0136 9.12834 10.9669C9.25509 10.82 9.37702 10.67 9.49461 10.5171C9.55822 10.4341 9.62039 10.3507 9.6816 10.2665C9.71581 10.2189 9.74955 10.1714 9.7828 10.1239C9.82858 10.0586 9.8734 9.99251 9.91774 9.9264C9.71292 9.92208 9.50858 9.91992 9.30377 9.91992Z" fill="#F1ECE2"/>
		<path d="M3.83853 13.2936C3.83094 13.295 3.82498 13.2931 3.82227 13.2857C3.8304 13.2842 3.83636 13.2857 3.83853 13.2936Z" fill="#C18B00"/>
		<path d="M8.08543 9.9463C7.98278 9.95062 7.88013 9.9558 7.77796 9.96142C7.66567 10.104 7.54953 10.2444 7.42808 10.3814C7.30904 10.5162 7.18712 10.6485 7.05892 10.7768C6.98615 10.8494 6.9129 10.9215 6.83772 10.9924C6.78471 11.0425 6.73073 11.0922 6.67531 11.1406C6.45507 11.3338 6.22423 11.5161 5.97603 11.6807C5.93459 11.708 5.89314 11.7348 5.85073 11.7611C5.71145 11.848 5.56736 11.9283 5.41748 12.0005C5.30905 12.0532 5.19724 12.0999 5.08398 12.1427C5.08495 12.1474 5.08398 12.1526 5.08639 12.1573C5.1023 12.1967 5.11917 12.2351 5.13748 12.2736C5.15531 12.312 5.17459 12.3496 5.19483 12.3868C5.23531 12.4611 5.28061 12.5337 5.32977 12.6046L5.33073 12.6054C5.3341 12.6098 5.33989 12.6136 5.34423 12.6175C5.35242 12.6154 5.36013 12.6123 5.36832 12.6111C5.51627 12.589 5.65989 12.5514 5.80109 12.5052C6.07868 12.414 6.33651 12.2878 6.5823 12.1418C6.71579 12.0627 6.84447 11.9776 6.9688 11.8881C7.12832 11.7736 7.28109 11.6522 7.42904 11.5256C7.5982 11.3804 7.75868 11.2283 7.9129 11.0706C7.9741 11.0084 8.03386 10.9453 8.09314 10.8814C8.37459 10.5767 8.63242 10.2561 8.87145 9.92383C8.60929 9.92815 8.34663 9.93506 8.08495 9.94673L8.08543 9.9463Z" fill="#FDBF41"/>
		<path d="M13.2398 6.4101C13.248 6.4101 13.2571 6.4101 13.2518 6.39844C13.2557 6.39844 13.2595 6.3993 13.2639 6.39973C13.2615 6.39973 13.2595 6.40017 13.2581 6.40103C13.2547 6.40319 13.2547 6.40794 13.2557 6.41356C13.2504 6.41356 13.2451 6.41313 13.2398 6.4127C13.2369 6.4127 13.2335 6.41227 13.2306 6.41183C13.2244 6.4114 13.2176 6.41054 13.2113 6.4101C13.1969 6.40838 13.1819 6.40578 13.168 6.40276C13.1925 6.40146 13.2162 6.40924 13.2403 6.41054L13.2398 6.4101Z" fill="#E7AA24"/>
		<path d="M5.76363 10.863C5.77423 10.8647 5.78436 10.866 5.79448 10.8677C5.59351 11.0419 5.38242 11.2052 5.15736 11.3547C5.07543 11.4091 4.9935 11.4636 4.90483 11.5098C4.88844 11.4463 4.88121 11.3815 4.87302 11.3167C4.84507 11.1101 4.83447 10.9027 4.83398 10.6953C4.88989 10.7074 4.94579 10.7191 5.00218 10.7307C5.16651 10.7644 5.33133 10.7943 5.49663 10.8215C5.58579 10.8362 5.67495 10.85 5.76411 10.8634L5.76363 10.863Z" fill="#F1ECE2"/>
		<path d="M6.68309 10.0459C6.65947 10.0484 6.63538 10.0502 6.61128 10.0523C6.37417 10.3228 6.12116 10.5808 5.84646 10.8223C5.82911 10.8379 5.81128 10.853 5.79393 10.8681C5.80212 10.8694 5.81032 10.8707 5.81803 10.872C5.80983 10.8707 5.80212 10.8694 5.79393 10.8686C5.59297 11.0427 5.38189 11.206 5.15683 11.3555C5.0749 11.41 4.99297 11.4644 4.9043 11.5107C4.90526 11.5193 4.90574 11.5284 4.90671 11.537C4.90671 11.5396 4.90671 11.5418 4.90767 11.5444C4.9096 11.5543 4.91201 11.5642 4.91394 11.5742C4.91538 11.5824 4.91683 11.5902 4.91875 11.5984C4.92309 11.6183 4.92743 11.6386 4.93177 11.6589C4.95731 11.773 4.98767 11.8857 5.02574 11.9968C5.04309 12.0465 5.05707 12.0975 5.08502 12.1441C5.19827 12.1013 5.31008 12.0547 5.41851 12.002C5.56839 11.9294 5.71249 11.849 5.85176 11.7626C5.89417 11.7367 5.93562 11.7099 5.97706 11.6822C6.22526 11.518 6.4561 11.3352 6.67634 11.1421C6.73176 11.0937 6.78526 11.044 6.83875 10.9939C6.91393 10.923 6.98718 10.8509 7.05995 10.7783C7.18767 10.6499 7.31008 10.5177 7.42911 10.3829C7.55008 10.2455 7.6667 10.1055 7.77899 9.96289C7.41369 9.98277 7.04887 10.0104 6.68453 10.0467L6.68309 10.0459Z" fill="#FF1100"/>
		<path d="M5.81707 10.8731C5.80887 10.8716 5.80116 10.8701 5.79297 10.8691C5.80116 10.8706 5.80935 10.8721 5.81707 10.8731Z" fill="#F1ECE2"/>
		<path d="M5.79452 10.8687C5.78439 10.8672 5.77379 10.8653 5.76367 10.8633L5.79452 10.8682V10.8687Z" fill="#FF1100"/>
		<path d="M5.49609 10.8223C5.58525 10.837 5.67441 10.8508 5.76356 10.8642C5.67441 10.8508 5.58477 10.837 5.49609 10.8223Z" fill="#FF1100"/>
		<path d="M6.45567 10.0726C6.50723 10.0627 6.55976 10.0575 6.61229 10.0527C6.37518 10.3232 6.12217 10.5812 5.84747 10.8227C5.83012 10.8383 5.81229 10.8534 5.79494 10.8685L5.7641 10.8642C5.67495 10.8508 5.58579 10.837 5.49664 10.8223C5.33133 10.7951 5.16603 10.7653 5.00218 10.7316C4.94627 10.7199 4.88989 10.7082 4.83398 10.6961C4.83398 10.6179 4.83495 10.5393 4.83736 10.4606C4.8388 10.414 4.84121 10.3677 4.8441 10.3215C5.03447 10.2809 5.22627 10.245 5.41856 10.2122C5.74723 10.1564 6.07783 10.1111 6.4094 10.0743C6.4147 10.0739 6.42 10.073 6.4253 10.0726C6.43157 10.0717 6.43783 10.0713 6.4441 10.0717C6.44796 10.0717 6.45181 10.0726 6.45567 10.0735V10.0726Z" fill="#FDBF41"/>
		<path d="M12.3184 6.29688C12.5102 6.31805 12.7025 6.33879 12.8943 6.35996C12.8933 6.36169 12.8919 6.36342 12.8899 6.36515C12.7709 6.35218 12.6514 6.33965 12.5323 6.32583C12.4976 6.32194 12.4629 6.31934 12.4282 6.31589C12.3935 6.31243 12.3588 6.30897 12.3246 6.30292C12.3227 6.30076 12.3208 6.29904 12.3184 6.29731V6.29688Z" fill="#007FFF"/>
		<path d="M11.377 6.83127C11.3842 6.80707 11.3909 6.78201 11.3982 6.75781C11.3914 6.78244 11.3842 6.80707 11.377 6.83127Z" fill="#F1ECE2"/>
		<path d="M16.8908 10.2877C16.8908 10.0509 16.8908 9.81458 16.8908 9.57779C16.874 9.51168 16.8508 9.4473 16.8099 9.38939C16.7439 9.29606 16.6653 9.21267 16.567 9.14439C16.4643 9.0731 16.3593 9.00612 16.246 8.94909C16.0904 8.87088 15.9284 8.80477 15.766 8.73952C15.7371 8.72785 15.7072 8.72223 15.6783 8.71186C15.3111 8.5831 14.9333 8.48631 14.5506 8.40291C14.3058 8.34933 14.059 8.30353 13.8113 8.26205C13.5333 8.21538 13.2537 8.1752 12.9737 8.14063C12.7805 8.11686 12.5872 8.09526 12.3935 8.07581C12.3072 8.06717 12.221 8.05896 12.1347 8.05118C11.8908 8.03001 11.6465 8.01014 11.4022 7.99458C11.2581 7.98507 11.1135 7.97686 10.9694 7.96952C10.847 7.96347 10.7241 7.95785 10.6012 7.95267C10.408 7.94489 10.2152 7.93884 10.0219 7.93495C10.008 7.93495 9.99398 7.93409 9.98 7.93409C9.67494 7.92804 9.3694 7.92631 9.06434 7.9289C9.05952 7.9289 9.0547 7.9289 9.0494 7.9289C8.73518 7.93149 8.42097 7.93798 8.10723 7.94964C8.08844 7.95007 8.06964 7.95137 8.05085 7.9518C7.67928 7.96606 7.30868 7.9868 6.93808 8.01489C6.39398 8.05594 5.85181 8.11168 5.31254 8.18773C5.29953 8.18946 5.287 8.19162 5.27399 8.19335C5.25327 8.25902 5.23447 8.32557 5.20845 8.38995C5.19013 8.45563 5.17182 8.52131 5.15303 8.58656C5.10339 8.76069 5.05857 8.93569 5.01953 9.11199C5.047 9.10767 5.07447 9.10378 5.10194 9.09946C5.13809 9.09384 5.17423 9.08865 5.20989 9.08304C5.26339 9.07526 5.31688 9.06748 5.37037 9.0597C5.56363 9.03291 5.75783 9.00872 5.95157 8.98668C6.14579 8.96464 6.34 8.9452 6.5347 8.92791C6.66434 8.91625 6.79446 8.90544 6.92458 8.89551C7.12121 8.88081 7.31832 8.86828 7.51543 8.85705C7.70097 8.84668 7.88651 8.83847 8.07205 8.83156C8.11976 8.82983 8.16747 8.82767 8.21518 8.82594C8.28603 8.82335 8.35735 8.82162 8.4282 8.81946C8.47398 8.81816 8.51976 8.8173 8.56603 8.81643C8.73326 8.81254 8.90049 8.81038 9.06771 8.80909C9.13085 8.80909 9.1935 8.80822 9.25663 8.80822C9.36458 8.80822 9.47253 8.80822 9.58 8.80909C9.61904 8.80909 9.65808 8.80952 9.69711 8.81038C9.73904 8.81081 9.78097 8.81125 9.8229 8.81168C9.93711 8.81341 10.0508 8.816 10.1651 8.81902C10.2793 8.82205 10.393 8.82594 10.5072 8.82983C10.526 8.83026 10.5448 8.83156 10.5636 8.83199C10.686 8.83674 10.8084 8.84236 10.9304 8.84798C11.0243 8.85273 11.1183 8.85791 11.2123 8.8631C11.353 8.87131 11.4942 8.88038 11.6349 8.89075C11.7646 8.90026 11.8942 8.91106 12.0243 8.92273C12.0287 8.92273 12.0335 8.92359 12.0378 8.92402C12.1308 8.93223 12.2239 8.94044 12.3169 8.94909C12.4658 8.96248 12.6147 8.97847 12.7636 8.99618C12.9121 9.0139 13.0605 9.03291 13.2089 9.05279C13.2706 9.061 13.3323 9.06964 13.3935 9.07828C13.5781 9.10507 13.7622 9.13446 13.9453 9.16686C14.0533 9.18588 14.1607 9.20575 14.2682 9.22649C14.3757 9.24723 14.4827 9.2697 14.5896 9.29304C14.7521 9.3289 14.9135 9.36736 15.073 9.40927C15.286 9.46544 15.4971 9.52853 15.7039 9.60242C15.7559 9.62057 15.807 9.64001 15.8586 9.65946C15.9366 9.6897 16.0133 9.72298 16.0894 9.75668C16.1082 9.76489 16.127 9.7731 16.1458 9.78174C16.1602 9.78822 16.1752 9.7947 16.1896 9.80118C16.2089 9.80983 16.2282 9.81847 16.247 9.82797C16.2711 9.83964 16.2947 9.85217 16.3169 9.866C16.4027 9.91915 16.4908 9.96927 16.5704 10.0298C16.5887 10.044 16.6065 10.0583 16.6239 10.0734C16.6446 10.089 16.6643 10.1058 16.6831 10.1227C16.7145 10.1508 16.7434 10.181 16.7689 10.2125C16.7815 10.2281 16.793 10.2441 16.8041 10.2605C16.8137 10.2748 16.8224 10.289 16.8306 10.3037C16.8388 10.3184 16.8465 10.3335 16.8533 10.3495C16.8605 10.3651 16.8668 10.3811 16.8725 10.397C16.8764 10.4083 16.8807 10.42 16.8846 10.4312C16.8846 10.4312 16.8846 10.432 16.8851 10.4325V10.4312C16.8952 10.3832 16.8889 10.3348 16.8894 10.2864L16.8908 10.2877Z" fill="#F1ECE2"/>
		<path d="M16.8946 9.48346C16.8951 9.30414 16.8951 9.12525 16.8946 8.94593C16.8946 8.8634 16.8937 8.78044 16.8932 8.69791C16.8773 8.65124 16.8662 8.60328 16.8426 8.55877C16.7824 8.44686 16.6922 8.35698 16.5881 8.27661C16.4744 8.18846 16.3486 8.11544 16.2166 8.05105C16.0252 7.95686 15.8267 7.87649 15.6219 7.80865C15.3848 7.73001 15.1443 7.66044 14.9004 7.60081C14.7139 7.55544 14.5264 7.51352 14.3385 7.47507C14.124 7.43143 13.9086 7.39297 13.6922 7.35883C13.4677 7.32383 13.2421 7.29013 13.0161 7.26204C12.9091 7.24865 12.8016 7.23612 12.6942 7.22402C12.4542 7.19636 12.2137 7.17217 11.9727 7.15315C11.9279 7.14926 11.8836 7.14365 11.8387 7.14062C11.6566 7.12809 11.4744 7.11599 11.2927 7.10433C11.2667 7.1026 11.2407 7.10087 11.2146 7.09914C11.0932 7.09136 10.9717 7.08359 10.8503 7.07797C10.6922 7.07106 10.5342 7.06587 10.3761 7.06068C10.3746 7.06068 10.3732 7.06068 10.3718 7.06068C10.2064 7.0555 10.0416 7.04988 9.87633 7.04729C9.73079 7.04513 9.58524 7.04383 9.43922 7.0434C9.37512 7.0434 9.31103 7.04297 9.24645 7.04297C8.99103 7.04297 8.73609 7.04643 8.48115 7.05291C8.47729 7.05291 8.47392 7.05291 8.47006 7.05291C8.17079 7.06068 7.87103 7.07149 7.57223 7.08877C7.34235 7.10173 7.11247 7.1134 6.88308 7.13068C6.79006 7.1376 6.69753 7.14797 6.605 7.15618C6.28163 7.18513 5.95922 7.21883 5.63777 7.25945C5.63392 7.25988 5.63054 7.26031 5.62669 7.26075C5.49801 7.55933 5.38235 7.8618 5.28067 8.16902C5.27826 8.1768 5.27585 8.18414 5.27344 8.19192C5.28597 8.19019 5.29898 8.18803 5.31199 8.1863C5.85127 8.11025 6.39344 8.05408 6.93753 8.01346C7.30814 7.98581 7.67874 7.96464 8.0503 7.95038C8.0691 7.94951 8.0879 7.94865 8.10669 7.94822C8.42043 7.93655 8.73464 7.93007 9.04886 7.92747C9.05368 7.92747 9.05898 7.92747 9.0638 7.92747C9.36934 7.92531 9.6744 7.92704 9.97946 7.93266C9.99344 7.93266 10.0074 7.93352 10.0214 7.93352C10.2146 7.93741 10.4074 7.94346 10.6007 7.95124C10.7236 7.95643 10.846 7.96204 10.9689 7.96809C11.113 7.97544 11.2575 7.98365 11.4016 7.99315C11.646 8.00914 11.8903 8.02859 12.1342 8.04976C12.2204 8.05754 12.3067 8.06575 12.393 8.07439C12.5867 8.09383 12.7799 8.11544 12.9732 8.1392C13.2532 8.17377 13.5327 8.21396 13.8108 8.26062C14.0585 8.3021 14.3052 8.34791 14.5501 8.40149C14.9327 8.48488 15.3105 8.58167 15.6778 8.71044C15.7067 8.72081 15.7366 8.72643 15.7655 8.73809C15.9279 8.80377 16.0898 8.86945 16.2455 8.94766C16.3587 9.0047 16.4638 9.07167 16.5664 9.14297C16.6648 9.21124 16.7433 9.29463 16.8093 9.38797C16.8503 9.44587 16.873 9.51025 16.8903 9.57636C16.8971 9.54525 16.8932 9.51371 16.8932 9.4826L16.8946 9.48346Z" fill="#FDBF41"/>
		<path d="M11.2269 2.70987C11.36 2.89611 11.4563 3.09746 11.5291 3.30833C11.5518 3.37358 11.572 3.43925 11.5903 3.50537C11.6207 3.61555 11.6443 3.72746 11.6631 3.83981C11.6684 3.87265 11.6737 3.90549 11.6785 3.93876C11.6877 4.00487 11.6959 4.07098 11.7026 4.13709C11.7055 4.17037 11.7084 4.2032 11.7113 4.23648C11.7248 4.41709 11.7306 4.5977 11.7253 4.77875C11.7195 4.96801 11.7069 5.15727 11.6857 5.3461C11.6645 5.53363 11.6356 5.72029 11.6009 5.90567C11.5802 6.01715 11.5571 6.1282 11.532 6.23838C11.3325 6.22412 11.133 6.21202 10.933 6.20338C10.8371 6.19949 10.7407 6.19474 10.6443 6.19042C10.7094 5.9398 10.7643 5.68746 10.8072 5.43252C10.8544 5.15036 10.8882 4.86733 10.9007 4.58258C10.9108 4.34061 10.9094 4.0982 10.8877 3.85623C10.8694 3.65444 10.839 3.45481 10.7908 3.25691C10.7363 3.03438 10.6597 2.81833 10.5498 2.61222C10.5065 2.53055 10.4554 2.45234 10.4043 2.37456C10.4462 2.36246 10.4901 2.36117 10.533 2.35728C10.5556 2.35512 10.5783 2.35339 10.6004 2.35209C10.6197 2.35123 10.639 2.35037 10.6583 2.34993C10.6896 2.3495 10.7209 2.3495 10.7522 2.34993C10.7739 2.35037 10.7961 2.35123 10.8178 2.35209C10.8347 2.35296 10.8515 2.35382 10.8684 2.35512C10.8713 2.35512 10.8742 2.35555 10.8766 2.35598C10.8819 2.35685 10.8867 2.35814 10.8915 2.35987C10.8963 2.3616 10.9007 2.36376 10.905 2.36635C10.9113 2.36981 10.9175 2.37456 10.9233 2.37932C10.9383 2.39141 10.9527 2.40395 10.9667 2.41648C10.9951 2.44154 11.0226 2.4679 11.0486 2.49469C11.1147 2.56166 11.1739 2.63296 11.2284 2.70901L11.2269 2.70987Z" fill="#F1ECE2"/>
		<path d="M10.7913 3.25626C10.8395 3.45373 10.8699 3.65379 10.8882 3.85558C10.9104 4.09755 10.9118 4.33996 10.9012 4.58194C10.8892 4.8667 10.8554 5.14972 10.8077 5.43188C10.7648 5.68682 10.7099 5.9396 10.6448 6.18978C10.572 6.18676 10.4988 6.1833 10.426 6.18071C10.2593 6.17509 10.093 6.17164 9.92626 6.16861C9.86409 6.16732 9.80192 6.16645 9.74023 6.16559C9.80096 5.96034 9.85445 5.75336 9.90023 5.54509C9.93493 5.38911 9.96481 5.23225 9.99132 5.07497C10.0087 4.96954 10.0241 4.86411 10.0376 4.75824C10.0516 4.64762 10.0626 4.53657 10.0704 4.42508C10.0785 4.30626 10.0838 4.187 10.0867 4.06817C10.0901 3.90873 10.0843 3.74971 10.0713 3.5907C10.0626 3.4857 10.0516 3.38113 10.0366 3.27657C10.0164 3.13354 9.98746 2.99224 9.94939 2.85224C9.91903 2.74033 9.88433 2.62885 9.83807 2.52082C9.86987 2.50268 9.9065 2.4936 9.94168 2.48194C10.013 2.45817 10.0848 2.43743 10.1581 2.41928C10.2313 2.40157 10.3051 2.38644 10.3802 2.37521C10.3855 2.37434 10.3904 2.37305 10.3957 2.37305C10.399 2.37305 10.4019 2.37305 10.4048 2.37391C10.4559 2.45169 10.507 2.52947 10.5504 2.61157C10.6602 2.81768 10.7369 3.03373 10.7913 3.25626Z" fill="#FDBF41"/>
		<path d="M12.885 2.89089C12.885 2.89089 12.8828 2.8895 12.8828 2.88857C12.8828 2.88811 12.8828 2.88764 12.8828 2.88672L12.8855 2.88811L12.8844 2.89042L12.885 2.89089Z" fill="#3180F4"/>
		<path d="M16.8893 11.2826C16.8898 11.2714 16.8907 11.2602 16.8907 11.2489C16.8907 11.064 16.8912 10.8786 16.8912 10.6937C16.8912 10.6137 16.8898 10.5338 16.8893 10.4539C16.8893 10.4491 16.8917 10.4439 16.8912 10.4392C16.8898 10.4361 16.8879 10.434 16.8864 10.4314C16.8864 10.4314 16.8864 10.4318 16.8864 10.4323C16.8864 10.4318 16.8864 10.4314 16.8859 10.431C16.8821 10.4193 16.8777 10.4081 16.8739 10.3964C16.8681 10.38 16.8613 10.364 16.8546 10.3489C16.8479 10.3333 16.8401 10.3182 16.8319 10.3031C16.8238 10.2884 16.8146 10.2737 16.8054 10.2598C16.7944 10.2434 16.7828 10.2274 16.7703 10.2119C16.7447 10.1799 16.7163 10.1501 16.6845 10.122C16.6657 10.1052 16.6459 10.0887 16.6252 10.0728C16.6079 10.0572 16.59 10.0429 16.5717 10.0291C16.4922 9.96861 16.404 9.91849 16.3182 9.86534C16.2956 9.85152 16.2719 9.83898 16.2483 9.82732C16.2295 9.81824 16.2103 9.80917 16.191 9.80053C16.1765 9.79405 16.1616 9.78757 16.1471 9.78108C16.1283 9.77244 16.1095 9.76423 16.0907 9.75602C16.0146 9.72232 15.938 9.68905 15.8599 9.6588C15.8083 9.63935 15.7572 9.61991 15.7052 9.60176C15.498 9.52831 15.2874 9.46479 15.0744 9.40861C14.9144 9.36627 14.7529 9.32781 14.591 9.29238C14.484 9.26905 14.377 9.24658 14.2695 9.22584C14.1621 9.2051 14.0546 9.18522 13.9466 9.16621C13.763 9.1338 13.5789 9.10398 13.3948 9.07763C13.3332 9.06898 13.2719 9.06034 13.2103 9.05213C13.0618 9.03226 12.9139 9.01324 12.765 8.99553C12.6165 8.97781 12.4676 8.96182 12.3182 8.94843C12.2252 8.94022 12.1322 8.93158 12.0392 8.92337C12.0348 8.92337 12.03 8.9225 12.0257 8.92207C11.896 8.9104 11.7664 8.8996 11.6363 8.8901C11.4956 8.87972 11.3544 8.87108 11.2136 8.86244C11.1197 8.85682 11.0257 8.85164 10.9317 8.84732C10.8093 8.84127 10.6869 8.83565 10.565 8.83133C10.5462 8.83047 10.5274 8.8296 10.5086 8.82917C10.3944 8.82485 10.2806 8.82139 10.1664 8.81837C10.0522 8.81534 9.93845 8.81275 9.82424 8.81102C9.78231 8.81059 9.74038 8.81016 9.69845 8.80972C9.65942 8.80929 9.62038 8.80886 9.58135 8.80843C9.47339 8.80756 9.36544 8.80713 9.25797 8.80756C9.19484 8.80756 9.13171 8.808 9.06906 8.80843C8.90183 8.80972 8.7346 8.81189 8.56737 8.81577C8.52159 8.81664 8.4758 8.81793 8.42954 8.8188C8.35869 8.82053 8.28737 8.82269 8.21653 8.82528C8.16882 8.82701 8.1211 8.82917 8.07339 8.8309C7.88785 8.83781 7.70231 8.84645 7.51677 8.85639C7.31966 8.86763 7.12255 8.87972 6.92592 8.89485C6.7958 8.90479 6.66568 8.91559 6.53604 8.92726C6.34135 8.94454 6.14713 8.96398 5.95291 8.98602C5.75869 9.00806 5.56496 9.03226 5.37171 9.05905C5.31822 9.06639 5.26472 9.07417 5.21123 9.08238C5.17509 9.08756 5.13942 9.09318 5.10328 9.0988C5.07581 9.10312 5.04834 9.10701 5.02087 9.11133C5.05991 8.93503 5.10472 8.76003 5.15436 8.5859C5.17316 8.52022 5.19147 8.45497 5.20978 8.38929C5.23581 8.32491 5.2546 8.25837 5.27533 8.19269C5.27774 8.18491 5.28015 8.17756 5.28255 8.16979C5.38424 7.86256 5.49991 7.55966 5.62858 7.26152C5.71003 7.07226 5.79677 6.88473 5.88882 6.69892C5.9505 6.57448 6.0146 6.45047 6.08062 6.32818C6.29894 5.92331 6.54135 5.52966 6.81026 5.14898C7.06135 4.79207 7.3346 4.44985 7.63388 4.12405C7.64014 4.11756 7.64496 4.10979 7.65074 4.10287C7.74086 4.0104 7.82954 3.91707 7.92159 3.8259C8.22134 3.52818 8.54424 3.2525 8.90183 3.01096C8.99002 2.95133 9.0811 2.89516 9.17122 2.83769C9.17942 2.8325 9.18954 2.83164 9.19918 2.83121C9.20351 2.81954 9.21556 2.81435 9.22568 2.80874C9.41026 2.70287 9.60207 2.60868 9.804 2.53263C9.81122 2.53003 9.81797 2.52658 9.82568 2.52442C9.82761 2.52398 9.83002 2.52355 9.83243 2.52312C9.83484 2.52312 9.83725 2.52226 9.83966 2.52226C9.87147 2.50411 9.90809 2.49503 9.94327 2.48337C10.0146 2.4596 10.0864 2.43886 10.1597 2.42071C10.2329 2.403 10.3066 2.38787 10.3818 2.37664C10.3871 2.37577 10.3919 2.37448 10.3972 2.37448C10.4006 2.37448 10.4035 2.37448 10.4064 2.37534C10.4483 2.36324 10.4922 2.36195 10.5351 2.35806C10.5577 2.3559 10.5804 2.35417 10.6026 2.35287C10.6218 2.35201 10.6411 2.35114 10.6604 2.35071C10.6917 2.35028 10.723 2.35028 10.7544 2.35071C10.776 2.35114 10.7982 2.35201 10.8199 2.35287C10.8368 2.35374 10.8536 2.3546 10.8705 2.3559C10.8734 2.3559 10.8763 2.35633 10.8787 2.35676C10.884 2.35763 10.8888 2.35892 10.8936 2.36065C10.8985 2.36238 10.9028 2.36454 10.9071 2.36713C10.9134 2.37059 10.9197 2.37534 10.9254 2.3801C10.9404 2.39219 10.9548 2.40473 10.9688 2.41726C10.9972 2.44232 11.0247 2.46868 11.0507 2.49547C11.1168 2.56244 11.176 2.63374 11.2305 2.70979C11.3635 2.89602 11.4599 3.09738 11.5327 3.30824C11.5553 3.37349 11.5756 3.43917 11.5939 3.50528C11.6242 3.61547 11.6479 3.72738 11.6666 3.83973C11.6719 3.87256 11.6772 3.9054 11.6821 3.93868C11.6912 4.00479 11.6994 4.0709 11.7062 4.13701C11.7091 4.17028 11.7119 4.20312 11.7148 4.23639C11.7283 4.41701 11.7341 4.59763 11.7288 4.77868C11.723 4.96794 11.7105 5.15719 11.6893 5.34602C11.6681 5.53355 11.6392 5.72022 11.6045 5.90559C11.5838 6.01707 11.5606 6.12812 11.5356 6.23831C11.5679 6.24047 11.6001 6.24263 11.6324 6.24522C11.8642 6.2625 12.0956 6.28324 12.3269 6.30226C12.325 6.3001 12.323 6.29837 12.3206 6.29664C12.5124 6.31781 12.7047 6.33855 12.8965 6.35972C12.8956 6.36145 12.8941 6.36318 12.8922 6.36491C12.9038 6.36621 12.9153 6.36794 12.9269 6.36923C12.9654 6.19898 13.0001 6.02874 13.0295 5.85719C13.0556 5.70337 13.0787 5.54911 13.0965 5.39442C13.1134 5.24966 13.1283 5.10491 13.136 4.95929C13.1399 4.88929 13.1442 4.81886 13.1491 4.74886C13.1495 4.73979 13.1442 4.72769 13.1601 4.7238C13.1601 4.59331 13.1592 4.46238 13.1587 4.33189C13.151 4.32886 13.1505 4.32281 13.1495 4.31633C13.1476 4.28997 13.1442 4.26405 13.1433 4.23769C13.1375 4.048 13.1182 3.8596 13.0898 3.67207C13.0585 3.46423 13.0122 3.25942 12.9481 3.05763C12.9322 3.00707 12.9187 2.95608 12.8936 2.90812L12.8883 2.89084C12.8883 2.89084 12.8864 2.88954 12.8864 2.88868C12.8864 2.88824 12.8864 2.88781 12.8864 2.88695C12.885 2.8809 12.884 2.87485 12.8816 2.8688C12.7886 2.62812 12.6671 2.39997 12.4999 2.19256C12.3389 1.9925 12.1447 1.82528 11.9052 1.70084C11.8156 1.65417 11.7182 1.62133 11.6262 1.57942C11.618 1.57553 11.6074 1.57639 11.5977 1.57466C11.5895 1.56516 11.5765 1.56256 11.5654 1.55781C11.3481 1.47139 11.1312 1.38497 10.9134 1.29942C10.8854 1.28818 10.8599 1.27176 10.8286 1.26831C10.8233 1.26658 10.818 1.26528 10.8127 1.26355C10.7756 1.25275 10.7375 1.24497 10.7018 1.22985C10.6985 1.22898 10.6956 1.22812 10.6922 1.22682C10.6907 1.22639 10.6888 1.22596 10.6874 1.22553C10.6874 1.22553 10.6869 1.22553 10.6864 1.22553C10.6825 1.22769 10.6801 1.22596 10.6777 1.22294C10.6079 1.20695 10.538 1.19485 10.4671 1.18621C10.416 1.17973 10.365 1.17497 10.3134 1.17238C10.296 1.17152 10.2792 1.17108 10.2618 1.17065C10.2103 1.16935 10.1592 1.16979 10.1081 1.17195C10.0401 1.17454 9.97267 1.18016 9.9052 1.18837C9.78761 1.20306 9.67098 1.2251 9.55532 1.25361C9.53894 1.25793 9.52207 1.26182 9.50568 1.26658C9.28833 1.32448 9.0811 1.40269 8.8811 1.49516C8.8146 1.52584 8.74857 1.55824 8.68303 1.59238C8.62327 1.62306 8.56448 1.6546 8.50616 1.68787C8.48689 1.69868 8.46761 1.70991 8.44833 1.72114C8.42906 1.73238 8.40978 1.74361 8.39098 1.75528C8.35291 1.77818 8.31532 1.80152 8.27821 1.82571C8.2599 1.83781 8.2411 1.84991 8.22279 1.86201C8.22279 1.86331 8.22279 1.86417 8.22279 1.86547C8.22279 1.86633 8.22183 1.86719 8.22134 1.86806C8.2199 1.86935 8.21797 1.86979 8.21508 1.86979H8.2146C8.2146 1.86979 8.2146 1.87152 8.2146 1.87195C8.2146 1.87368 8.21363 1.87454 8.21267 1.87497C8.21171 1.8754 8.21074 1.8754 8.20882 1.87497C8.20833 1.87497 8.20737 1.87497 8.20689 1.87411C8.12496 1.92553 8.04544 1.97911 7.96785 2.03485C7.93315 2.05948 7.89894 2.08497 7.8652 2.11047C7.8599 2.11435 7.8546 2.11868 7.8493 2.12256C7.8146 2.14892 7.7799 2.17571 7.74568 2.20293C7.74568 2.2038 7.74568 2.20423 7.74568 2.2051C7.74568 2.20726 7.74472 2.20855 7.74327 2.20985C7.74327 2.20985 7.74231 2.21028 7.74183 2.21071C7.74086 2.21114 7.73942 2.21158 7.73797 2.21158C7.73701 2.21331 7.73556 2.21503 7.73412 2.21633C7.73219 2.21806 7.73074 2.21979 7.72833 2.22108C7.72544 2.22281 7.72207 2.22454 7.71821 2.22497C7.71821 2.22886 7.71725 2.23102 7.71532 2.23189C7.71243 2.23361 7.70713 2.23232 7.70327 2.23275C7.69026 2.24485 7.67677 2.25695 7.66375 2.26861C7.66279 2.26948 7.66231 2.27034 7.66135 2.27077C7.66135 2.27121 7.66135 2.27207 7.66135 2.2725C7.66135 2.27423 7.66038 2.2751 7.65942 2.27639H7.65894C7.65894 2.27639 7.65604 2.27769 7.65315 2.27769C7.64159 2.28633 7.62906 2.29411 7.61797 2.30318C7.61701 2.30405 7.61604 2.30448 7.61508 2.30534C7.57267 2.34121 7.52978 2.37707 7.48785 2.4138C7.48496 2.41639 7.48207 2.41855 7.47966 2.42071C7.46665 2.43238 7.45315 2.44318 7.43966 2.45442C7.40592 2.4825 7.37122 2.50973 7.33894 2.53911C7.32159 2.5551 7.30375 2.57108 7.28641 2.58664C7.18616 2.67781 7.08689 2.76985 6.99098 2.86491C6.86857 2.98633 6.74954 3.10991 6.63388 3.23608C6.61749 3.25423 6.60062 3.27195 6.58424 3.2901C6.58183 3.29269 6.57894 3.29571 6.57701 3.29874C6.57363 3.30306 6.57026 3.30738 6.56689 3.31213C6.56255 3.31818 6.55821 3.32423 6.55388 3.32985C6.5505 3.33417 6.54713 3.33806 6.54327 3.34238C6.54183 3.34368 6.54086 3.34497 6.5399 3.34584C6.5346 3.35102 6.5293 3.35577 6.52303 3.35966C6.52303 3.36096 6.52255 3.36139 6.52207 3.36226C6.52207 3.36312 6.52207 3.36398 6.5211 3.36485C6.5211 3.36528 6.52014 3.36571 6.51966 3.36614C6.51869 3.36658 6.51725 3.36701 6.51628 3.36744C6.51339 3.37954 6.50231 3.38559 6.49315 3.39337C6.49267 3.39337 6.49219 3.39423 6.49171 3.39466C6.48882 3.39682 6.48689 3.39942 6.48496 3.40201C6.484 3.40331 6.48303 3.4046 6.48255 3.40633C6.48207 3.40806 6.4811 3.40935 6.48062 3.41108C6.48062 3.41195 6.48062 3.41238 6.48062 3.41324C6.48062 3.4154 6.47966 3.4167 6.47773 3.418C6.47773 3.418 6.47677 3.418 6.47677 3.41843C6.47628 3.41843 6.47532 3.41843 6.47484 3.41843C6.47436 3.41843 6.47388 3.41843 6.47291 3.41843C6.45171 3.44219 6.43002 3.46596 6.40882 3.48973C6.40785 3.49102 6.40641 3.49232 6.40544 3.49361C6.40592 3.49664 6.40592 3.49923 6.40544 3.50182C6.40544 3.50398 6.404 3.50528 6.40303 3.50701C6.40303 3.50744 6.40207 3.50831 6.40207 3.50874C6.40062 3.51003 6.39869 3.51176 6.39677 3.51263C6.39436 3.51392 6.39147 3.51479 6.38857 3.51565C6.3852 3.51911 6.38183 3.52213 6.37845 3.52559C6.37701 3.52689 6.37604 3.52818 6.37508 3.52905C6.37219 3.53164 6.36978 3.53466 6.36737 3.53726C6.31291 3.60293 6.25845 3.66905 6.204 3.73472C6.204 3.73689 6.20303 3.73818 6.20159 3.73948C6.20159 3.73948 6.2011 3.73991 6.20062 3.74034C6.19966 3.74121 6.19821 3.74164 6.19677 3.74164C6.15918 3.78917 6.12062 3.83627 6.08351 3.88423C6.07629 3.89374 6.06906 3.90324 6.06183 3.91275C6.00641 3.98577 5.95436 4.06096 5.89845 4.13355C5.8705 4.16985 5.844 4.20701 5.81749 4.24374C5.7905 4.28047 5.76351 4.31719 5.73412 4.35306C5.68737 4.41053 5.64737 4.47318 5.60641 4.53411C5.58858 4.56047 5.57075 4.58682 5.5534 4.61318C5.35533 4.90787 5.16304 5.20559 4.99918 5.51713C4.98954 5.53528 4.97846 5.55213 4.96737 5.56942C4.95629 5.58627 4.94473 5.60355 4.93509 5.62084C4.87919 5.72152 4.82473 5.82263 4.77172 5.9246C4.75196 5.96263 4.73268 6.00065 4.71292 6.03911C4.68738 6.0888 4.66231 6.13892 4.63774 6.18905C4.60641 6.25256 4.57509 6.31652 4.54425 6.3809C4.53123 6.40769 4.5187 6.43491 4.50617 6.46213C4.49027 6.49584 4.47436 6.52954 4.45894 6.56368C4.404 6.68337 4.35099 6.80435 4.29942 6.92534C4.28448 6.96077 4.26955 6.99621 4.25509 7.03207C4.21991 7.11849 4.18569 7.20491 4.15147 7.29176C4.14328 7.3125 4.13509 7.33324 4.12689 7.35398C4.12063 7.36997 4.11436 7.38639 4.10858 7.40281C4.09268 7.44386 4.07774 7.48534 4.06328 7.52682C4.04545 7.57738 4.0281 7.62793 4.01075 7.67849C3.99822 7.71479 3.98569 7.75065 3.97268 7.78695C3.94328 7.86775 3.90906 7.94769 3.89749 8.03281C3.89701 8.03713 3.89123 8.04102 3.88834 8.04491C3.87389 8.08034 3.86521 8.11664 3.85557 8.15294C3.85075 8.17022 3.84496 8.1875 3.83918 8.20479C3.8334 8.22207 3.82762 8.23936 3.82231 8.25664C3.80015 8.33096 3.77846 8.40571 3.75822 8.48047C3.73942 8.54787 3.72159 8.61615 3.70424 8.68398C3.68496 8.76047 3.66665 8.83695 3.64882 8.91343C3.6334 8.9804 3.61846 9.04781 3.60449 9.11522C3.5934 9.1688 3.58231 9.22195 3.57219 9.27553C3.56304 9.32263 3.55484 9.36973 3.54617 9.41682C3.53557 9.47689 3.52545 9.53652 3.51629 9.59658C3.5081 9.65059 3.50039 9.70417 3.49268 9.75818C3.47243 9.90639 3.45605 10.0546 3.44304 10.2037C3.43966 10.2465 3.43629 10.2888 3.43388 10.3316C3.43099 10.3744 3.42858 10.4167 3.42665 10.4595C3.4228 10.5446 3.41991 10.6302 3.41702 10.7153C3.41654 10.7347 3.41653 10.7542 3.41605 10.7736C3.41605 10.7797 3.41605 10.7853 3.41605 10.7913C3.41557 10.9007 3.42039 11.0095 3.42424 11.118C3.42424 11.1227 3.42521 11.1279 3.42521 11.1327C3.42617 11.1521 3.42713 11.1716 3.42858 11.191C3.43292 11.2697 3.44015 11.3483 3.44931 11.4269C3.45557 11.4801 3.46231 11.5337 3.47002 11.5868C3.47099 11.5946 3.47244 11.6019 3.4734 11.6097C3.48979 11.7177 3.50858 11.8253 3.5322 11.9321C3.57605 12.1317 3.63437 12.3279 3.71437 12.5184C3.71581 12.5215 3.71725 12.5249 3.7187 12.5284C3.77846 12.6692 3.84786 12.8062 3.93316 12.9367C4.0734 13.1515 4.24448 13.3416 4.4628 13.4932C4.48882 13.5114 4.51533 13.5287 4.54231 13.546C4.56834 13.5619 4.59629 13.5766 4.62328 13.5913C4.6281 13.5944 4.63389 13.5965 4.63919 13.5987C4.64304 13.6004 4.64689 13.6017 4.65075 13.6034C4.65749 13.6065 4.66376 13.6103 4.6681 13.616C4.66954 13.6177 4.67099 13.6203 4.67243 13.6229V13.622C4.67966 13.6211 4.68593 13.6224 4.6893 13.6294H4.68978C4.69653 13.6294 4.7028 13.6311 4.70617 13.6367C4.7081 13.6367 4.70954 13.6367 4.71099 13.6371H4.71148C4.71581 13.638 4.71966 13.6397 4.72256 13.6436C4.72256 13.6436 4.72256 13.6436 4.72256 13.644C4.72256 13.644 4.72352 13.644 4.724 13.644C4.72496 13.644 4.72593 13.644 4.72689 13.644C4.72786 13.644 4.72834 13.6445 4.72978 13.6445C4.73027 13.6445 4.73123 13.6445 4.73172 13.6449C4.73268 13.6449 4.73364 13.6458 4.7346 13.6462C4.7346 13.6462 4.73557 13.6462 4.73605 13.6466C4.73701 13.6475 4.73798 13.6484 4.73894 13.6492C4.73894 13.6492 4.73894 13.6492 4.73942 13.6492C4.74858 13.6579 4.76111 13.66 4.77268 13.6648C5.01316 13.7603 5.25413 13.8558 5.49461 13.9513C5.61364 13.9984 5.73172 14.0481 5.85749 14.0792C5.98327 14.1103 6.11098 14.1315 6.24159 14.1362C6.26327 14.1362 6.28496 14.1362 6.30665 14.1362C6.37171 14.1362 6.43677 14.1362 6.50183 14.1362C6.56496 14.1345 6.62761 14.1271 6.68978 14.1185C6.94279 14.0844 7.18568 14.0174 7.42038 13.9271C7.85026 13.7616 8.23821 13.5356 8.60207 13.2742C8.68207 13.2167 8.76014 13.1575 8.83773 13.0974C9.10809 13.1018 9.37797 13.1031 9.64833 13.1005C9.90568 13.0979 10.1635 13.094 10.4209 13.0849C10.4334 13.0784 10.4469 13.0784 10.4604 13.0832C10.4642 13.0832 10.4681 13.0832 10.4719 13.0832C10.4874 13.0767 10.5033 13.0771 10.5192 13.0815H10.5307C10.5399 13.0763 10.5495 13.0754 10.5592 13.0771C10.5592 13.0771 10.5597 13.0771 10.5601 13.0771H10.5606C10.564 13.078 10.5669 13.0789 10.5698 13.0797H10.5813C10.5876 13.0763 10.5939 13.075 10.6001 13.0745C10.6069 13.0745 10.6136 13.0758 10.6209 13.0776C10.6247 13.0776 10.6286 13.0776 10.6324 13.0776C10.6368 13.0754 10.6411 13.0741 10.6454 13.0732C10.6541 13.0715 10.6633 13.0724 10.6724 13.0754C10.6763 13.0754 10.6797 13.0754 10.6835 13.0754C10.6835 13.0754 10.6845 13.0754 10.685 13.075C10.6975 13.0694 10.7105 13.0694 10.723 13.0737C10.7269 13.0737 10.7307 13.0737 10.7341 13.0737C10.7471 13.0663 10.7601 13.0672 10.7741 13.0715C10.778 13.0715 10.7818 13.0715 10.7852 13.0715C10.7982 13.0646 10.8117 13.0655 10.8252 13.0694C10.8291 13.0694 10.8329 13.0694 10.8363 13.0694C10.8392 13.0676 10.8416 13.0668 10.844 13.0659C10.8483 13.0646 10.8522 13.0646 10.8565 13.0646C10.8604 13.0646 10.8647 13.0655 10.8686 13.0672C10.9274 13.0646 10.9857 13.0629 11.0445 13.0598C11.4946 13.0361 11.9433 13.0041 12.3915 12.9596C13.0719 12.8918 13.7481 12.8006 14.416 12.664C14.871 12.5711 15.3197 12.4597 15.7534 12.3028C15.9862 12.2186 16.2122 12.1222 16.4213 11.996C16.5471 11.92 16.6638 11.8344 16.7572 11.7251C16.816 11.6555 16.8638 11.5808 16.8821 11.4935C16.8893 11.4866 16.8922 11.4784 16.8927 11.4697C16.897 11.4071 16.8994 11.3448 16.8932 11.2822L16.8893 11.2826ZM10.8483 9.96084C10.723 9.95392 10.5982 9.94787 10.4729 9.94312C10.5982 9.94831 10.723 9.95435 10.8483 9.96084ZM8.06906 12.0008C8.04882 12.0168 8.02857 12.0332 8.00833 12.0492C7.86616 12.1611 7.71966 12.2669 7.56689 12.3659C7.41412 12.4644 7.25556 12.556 7.08978 12.6377C7.06616 12.6494 7.04207 12.661 7.01797 12.6723C6.96255 12.6982 6.90665 12.7228 6.85026 12.7466C6.79388 12.7699 6.73653 12.7915 6.67869 12.8118C6.56303 12.8524 6.44448 12.8861 6.32207 12.9121C6.26906 12.9233 6.21604 12.9328 6.16303 12.9402C6.14424 12.9427 6.12544 12.9453 6.10713 12.9479C6.03484 12.9566 5.96255 12.9618 5.88978 12.9635C5.86568 12.9639 5.8411 12.9644 5.81701 12.9639C5.79243 12.9639 5.76833 12.9631 5.74376 12.9622C5.73316 12.9618 5.72304 12.9605 5.71243 12.9596C5.70231 12.9587 5.69171 12.9574 5.68111 12.9566C5.66762 12.9557 5.6575 12.9505 5.64738 12.9427C5.61846 12.9194 5.59099 12.8952 5.564 12.8702C5.524 12.833 5.48593 12.7941 5.45027 12.7539C5.42665 12.7271 5.40352 12.6995 5.38135 12.671C5.37027 12.6567 5.35966 12.6424 5.34906 12.6282C5.3481 12.6269 5.34762 12.6256 5.34713 12.6243C5.34665 12.6221 5.34569 12.6195 5.34521 12.6174C5.34087 12.6135 5.33509 12.6096 5.33171 12.6053L5.33075 12.6044C5.28111 12.534 5.23629 12.4614 5.19581 12.3866C5.17557 12.349 5.15629 12.3119 5.13846 12.2734C5.12015 12.2354 5.10328 12.1965 5.08737 12.1572C5.08545 12.1524 5.08593 12.1477 5.08497 12.1425C5.05702 12.0958 5.04304 12.0448 5.02569 11.9952C4.98713 11.8841 4.95677 11.7713 4.93171 11.6573C4.92737 11.6369 4.92304 11.6171 4.9187 11.5968C4.91677 11.5886 4.91581 11.5808 4.91388 11.5726C4.91195 11.5626 4.90954 11.5527 4.90762 11.5428C4.90762 11.5402 4.90762 11.538 4.90665 11.5354C4.90569 11.5268 4.90521 11.5177 4.90425 11.509C4.88786 11.4455 4.88063 11.3807 4.87243 11.3159C4.84448 11.1094 4.83388 10.9019 4.8334 10.6945C4.8334 10.6163 4.83436 10.5377 4.83677 10.459C4.83822 10.4124 4.84063 10.3661 4.84352 10.3199C5.03388 10.2793 5.22569 10.2434 5.41798 10.2106C5.74665 10.1548 6.07725 10.1095 6.40882 10.0728C6.41412 10.0723 6.41942 10.0715 6.42472 10.071C6.43098 10.0702 6.43725 10.0697 6.44351 10.0702C6.44737 10.0702 6.45122 10.071 6.45508 10.0719C6.50665 10.0619 6.55918 10.0568 6.61171 10.052C6.6358 10.0498 6.6599 10.0477 6.68351 10.0455C7.04785 10.0092 7.41267 9.98158 7.77797 9.9617C7.88062 9.95608 7.98327 9.9509 8.08544 9.94658C8.34761 9.93534 8.60978 9.928 8.87195 9.92368C9.01556 9.92108 9.15918 9.91979 9.30279 9.91979C9.50761 9.91979 9.71243 9.92195 9.91677 9.92627C9.87243 9.99238 9.82761 10.0585 9.78183 10.1237C9.74857 10.1717 9.71484 10.2192 9.68062 10.2663C9.61942 10.3506 9.55725 10.434 9.49363 10.5169C9.37604 10.6699 9.25412 10.8198 9.12737 10.9668C9.08737 11.0134 9.04689 11.0597 9.00544 11.1055C8.99821 11.1137 8.99098 11.1219 8.98376 11.1297C8.924 11.1962 8.86327 11.2615 8.8011 11.3258C8.69749 11.4334 8.59098 11.5384 8.48159 11.6413C8.44833 11.6724 8.41508 11.7035 8.38135 11.7342C8.2946 11.8128 8.20496 11.8897 8.11339 11.9645C8.09845 11.9766 8.08351 11.9891 8.06857 12.0012L8.06906 12.0008ZM8.55677 11.98C8.66279 11.9831 8.7693 11.9857 8.87532 11.9874C8.76882 11.9857 8.66279 11.9831 8.55677 11.98ZM15.565 10.9681C15.5621 10.9715 15.5572 10.975 15.5495 10.9802C15.5394 10.9871 15.5293 10.9944 15.5187 11.0009C15.5086 11.0078 15.498 11.0143 15.4874 11.0212C15.4676 11.0337 15.4474 11.0458 15.4266 11.0575C15.4242 11.0588 15.4218 11.0601 15.4194 11.0618C15.4026 11.0713 15.3857 11.0808 15.3683 11.0899C15.3428 11.1037 15.3177 11.1167 15.2917 11.1297C15.1153 11.2178 14.9298 11.2887 14.7404 11.3513C14.5616 11.4101 14.3804 11.4615 14.1977 11.5073C13.936 11.573 13.671 11.6274 13.4035 11.675C13.1438 11.7216 12.883 11.761 12.6213 11.7951C12.3597 11.8292 12.097 11.8577 11.8339 11.8824C11.7476 11.8906 11.6613 11.8979 11.5751 11.9053C11.4021 11.9195 11.2291 11.9316 11.056 11.942C10.9693 11.9472 10.8826 11.9519 10.7963 11.9563C10.6021 11.9662 10.4079 11.9736 10.2136 11.9792C10.1785 11.98 10.1433 11.9813 10.1076 11.9822C10.0753 11.9831 10.043 11.9839 10.0103 11.9848C10.0898 11.8966 10.1693 11.8089 10.2421 11.716C10.2527 11.7044 10.2633 11.6927 10.2734 11.6806C10.4291 11.4926 10.5785 11.3012 10.7221 11.1063C10.7298 11.0955 10.7698 11.0411 10.7818 11.0242C10.8729 10.8985 10.9611 10.7715 11.0474 10.6427C11.1881 10.4318 11.3225 10.2179 11.4503 10.001C11.6941 10.02 11.9375 10.0421 12.1809 10.0689C12.1987 10.0706 12.2165 10.074 12.2348 10.0766C12.3438 10.0836 12.4517 10.0982 12.5592 10.1125C12.6975 10.1307 12.8358 10.1505 12.9736 10.1713C13.1597 10.1994 13.3457 10.2305 13.5303 10.2663C13.63 10.2858 13.7293 10.3057 13.8291 10.3251C13.83 10.3251 13.8315 10.3251 13.8324 10.3255C13.8334 10.3255 13.8344 10.3255 13.8358 10.326C13.8421 10.3268 13.8493 10.3268 13.856 10.3277C13.8647 10.3286 13.8734 10.3307 13.8801 10.3372C14.0932 10.386 14.3057 10.4374 14.5144 10.4992C14.5336 10.5048 14.5558 10.5066 14.5707 10.5213C14.6252 10.5299 14.6748 10.5502 14.7259 10.5671C14.7707 10.5818 14.8156 10.5973 14.8599 10.6133C14.9866 10.6582 15.111 10.7079 15.2315 10.7654C15.2792 10.7879 15.3259 10.8116 15.3722 10.8367C15.4334 10.87 15.4932 10.905 15.5491 10.9452C15.5654 10.9568 15.5703 10.9616 15.564 10.9685L15.565 10.9681Z" fill="#007FFF"/>
		<path d="M16.893 7.85444C16.8872 7.75117 16.8433 7.65999 16.7763 7.57703C16.6819 7.45907 16.56 7.36703 16.4279 7.2858C16.2029 7.14752 15.9566 7.04598 15.7045 6.95524C15.5643 6.90469 15.4221 6.85975 15.2785 6.81827C15.0597 6.75518 14.8376 6.70117 14.6144 6.65191C14.3354 6.59055 14.0549 6.5374 13.7725 6.49117C13.6004 6.46308 13.4279 6.43586 13.2549 6.41339C13.2496 6.41339 13.2443 6.41296 13.239 6.41252C13.2361 6.41252 13.2327 6.41209 13.2298 6.41166C13.2236 6.41123 13.2168 6.41036 13.2106 6.40993C13.1961 6.4082 13.1812 6.40561 13.1672 6.40259C13.1156 6.39524 13.0645 6.3879 13.013 6.38012C12.9831 6.37623 12.9532 6.37234 12.9233 6.36888C12.9118 6.36715 12.9002 6.36586 12.8886 6.36456C12.7696 6.3516 12.6501 6.33907 12.531 6.32524C12.4963 6.32135 12.4616 6.31876 12.4269 6.3153C12.3922 6.31228 12.3576 6.30839 12.3233 6.30234C12.092 6.2829 11.8607 6.26215 11.6289 6.2453C11.5966 6.24314 11.5643 6.24055 11.532 6.23839C11.3325 6.22413 11.133 6.21203 10.933 6.20339C10.8371 6.1995 10.7407 6.19475 10.6443 6.19043C10.5715 6.1874 10.4983 6.18394 10.4255 6.18135C10.2588 6.17573 10.0925 6.17228 9.92574 6.16925C9.86357 6.16796 9.80141 6.16709 9.73972 6.16623C9.73972 6.16623 9.85394 5.75401 9.89972 5.54573C9.93442 5.38975 9.9643 5.2329 9.9908 5.07561C10.0082 4.97018 10.0236 4.86475 10.0371 4.75888C10.051 4.64827 10.0621 4.53722 10.0698 4.42574C10.078 4.30692 10.0833 4.18766 10.0862 4.06883C10.0896 3.90939 10.0838 3.75037 10.0708 3.59136C10.0621 3.48636 10.051 3.38179 10.0361 3.27722C10.0159 3.1342 9.98695 2.9929 9.94888 2.8529C9.91851 2.74099 9.88382 2.62951 9.83755 2.52148C9.83514 2.52148 9.83273 2.52148 9.83032 2.52235C9.82791 2.52235 9.8255 2.52321 9.82358 2.52364C9.81586 2.52581 9.80912 2.52926 9.80189 2.53185C9.59948 2.6079 9.40815 2.70253 9.22358 2.80797C9.21297 2.81402 9.20141 2.81877 9.19707 2.83044C9.24141 3.08148 9.26213 3.33383 9.26454 3.5879C9.26839 3.9513 9.23851 4.31253 9.18309 4.67246C9.14117 4.94339 9.08574 5.21215 9.01827 5.47919C8.95996 5.7108 8.89249 5.94024 8.81731 6.16753C8.63562 6.16925 8.45345 6.17444 8.27177 6.17962C8.02984 6.18697 7.78791 6.19691 7.54647 6.21074C7.33345 6.22283 7.11996 6.23536 6.90695 6.25178C6.63032 6.27339 6.35418 6.29759 6.079 6.32783C6.01297 6.45055 5.94888 6.57413 5.88719 6.69857C5.79514 6.88438 5.7084 7.07191 5.62695 7.26117C5.63081 7.26073 5.63418 7.2603 5.63804 7.25987C5.95948 7.21925 6.28237 7.18555 6.60526 7.1566C6.69779 7.14839 6.79032 7.13845 6.88333 7.1311C7.11273 7.11382 7.34261 7.10215 7.57249 7.08919C7.87129 7.07191 8.17056 7.06111 8.47032 7.05333C8.47418 7.05333 8.47755 7.05333 8.48141 7.05333C8.73635 7.04685 8.99129 7.04382 9.24671 7.04339C9.3108 7.04339 9.3749 7.04339 9.43948 7.04382C9.58502 7.04425 9.73104 7.04555 9.87659 7.04771C10.0419 7.0503 10.2067 7.05592 10.372 7.0611C10.3735 7.0611 10.3749 7.0611 10.3763 7.0611C10.5344 7.06629 10.6925 7.07148 10.8506 7.07839C10.972 7.08357 11.0935 7.09135 11.2149 7.09956C11.2409 7.10129 11.2669 7.10302 11.293 7.10475C11.4751 7.11641 11.6568 7.12851 11.839 7.14104C11.8838 7.14407 11.9282 7.14969 11.973 7.15357C12.2139 7.17259 12.4544 7.19678 12.6944 7.22444C12.8019 7.23654 12.9089 7.2495 13.0163 7.26246C13.2424 7.29055 13.4679 7.32425 13.6925 7.35925C13.9089 7.39339 14.1248 7.43185 14.3388 7.47549C14.5272 7.51394 14.7147 7.55586 14.9007 7.60123C15.145 7.66086 15.385 7.73043 15.6221 7.80907C15.8269 7.87734 16.025 7.95771 16.2168 8.05148C16.3489 8.11629 16.4742 8.18888 16.5884 8.27703C16.692 8.35697 16.7826 8.44685 16.8429 8.55919C16.8669 8.6037 16.878 8.65166 16.8935 8.69833C16.8939 8.60543 16.8949 8.51252 16.8954 8.41962C16.8954 8.28178 16.8954 8.14351 16.8954 8.00567C16.8954 7.95555 16.8973 7.90499 16.8944 7.8553L16.893 7.85444Z" fill="#FF1100"/>
		<path d="M10.8101 1.26346C10.773 1.25266 10.7349 1.24488 10.6992 1.22976C10.6992 1.22544 10.6997 1.22112 10.7002 1.2168C10.7445 1.2289 10.7864 1.24575 10.8255 1.26822C10.8202 1.26649 10.8149 1.26519 10.8096 1.26346H10.8101Z" fill="#404A5A"/>
		<path d="M10.6811 1.22323C10.6811 1.22323 10.6845 1.22471 10.6854 1.22619C10.6854 1.22619 10.6849 1.22619 10.6845 1.22619C10.6806 1.22866 10.6782 1.22668 10.6758 1.22323C10.6777 1.22273 10.6792 1.22224 10.6811 1.22323Z" fill="#404A5A"/>
		<path d="M6.20059 3.73633C6.20059 3.73633 6.19962 3.74028 6.19818 3.74176C6.19818 3.74176 6.1977 3.74225 6.19721 3.74275C6.19625 3.74374 6.19481 3.74423 6.19336 3.74423C6.19336 3.74374 6.19336 3.74324 6.19336 3.74275V3.74127C6.19336 3.74127 6.19625 3.7383 6.1977 3.73732C6.19866 3.73732 6.19962 3.73633 6.20059 3.73633Z" fill="#404A5A"/>
		<path d="M6.40021 3.5097C6.40021 3.5097 6.39684 3.51272 6.39491 3.51359C6.3925 3.51488 6.39009 3.51574 6.38672 3.51661C6.38672 3.51488 6.38672 3.51358 6.38672 3.51229C6.38672 3.51099 6.38672 3.5097 6.3872 3.50883C6.38816 3.50667 6.38913 3.50451 6.39057 3.50278C6.39202 3.50105 6.39443 3.49976 6.39636 3.49803C6.39877 3.49673 6.40118 3.49544 6.40359 3.49414C6.40407 3.49717 6.40407 3.49975 6.40359 3.50235C6.40359 3.50451 6.40214 3.50581 6.40118 3.50754C6.40118 3.50797 6.40021 3.50883 6.40021 3.50926V3.5097Z" fill="#404A5A"/>
		<path d="M6.47552 3.41793C6.47552 3.41793 6.47456 3.41793 6.47456 3.41837C6.47408 3.41837 6.47311 3.41837 6.47263 3.41837C6.47215 3.41837 6.47167 3.41837 6.4707 3.41837C6.47311 3.41577 6.47552 3.41275 6.47793 3.41016C6.47793 3.41102 6.47793 3.41145 6.47793 3.41232C6.47793 3.41448 6.47697 3.41577 6.47504 3.41707L6.47552 3.41793Z" fill="#215CB5"/>
		<path d="M6.51367 3.36499C6.51367 3.36283 6.5156 3.3611 6.51753 3.36024C6.51849 3.36024 6.51945 3.35981 6.52042 3.35938C6.52042 3.36067 6.51994 3.3611 6.51946 3.36197C6.51946 3.36283 6.51945 3.3637 6.51849 3.36456C6.51849 3.36499 6.51753 3.36542 6.51705 3.36586C6.51608 3.36629 6.51464 3.36672 6.51367 3.36715C6.51367 3.36629 6.51367 3.36586 6.51367 3.36499Z" fill="#215CB5"/>
		<path d="M9.93555 0.917575C9.9447 0.913624 9.95049 0.917575 9.95579 0.924983C9.94759 0.926958 9.93892 0.928933 9.93555 0.918069V0.917575Z" fill="#FEC35E"/>
		<path d="M9.93359 0.916016H9.93582L9.93359 0.91801V0.916016Z" fill="#FDBF41"/>
		<path d="M7.65234 2.27743C7.65524 2.27496 7.65764 2.27249 7.66054 2.26953C7.66054 2.27003 7.66054 2.27101 7.66054 2.27151C7.66054 2.27348 7.65957 2.27447 7.65861 2.27595H7.65813C7.65813 2.27595 7.65524 2.27743 7.65234 2.27743Z" fill="#404A5A"/>
		<path d="M7.70822 2.22513C7.71093 2.22364 7.71418 2.22266 7.71798 2.22266C7.71798 2.2271 7.71689 2.22957 7.71473 2.23056C7.71147 2.23253 7.70551 2.23105 7.70117 2.23155C7.70334 2.22858 7.70551 2.22661 7.70822 2.22513Z" fill="#404A5A"/>
		<path d="M7.74404 2.20485C7.74404 2.20485 7.74307 2.20831 7.74163 2.20961C7.74163 2.20961 7.74066 2.21004 7.74018 2.21047C7.73922 2.2109 7.73777 2.21133 7.73633 2.21133C7.73874 2.20874 7.74163 2.20572 7.74404 2.20312C7.74404 2.20399 7.74404 2.20442 7.74404 2.20529V2.20485Z" fill="#404A5A"/>
		<path d="M8.22157 1.86478C8.22157 1.86478 8.22048 1.86676 8.21994 1.86775C8.21831 1.86923 8.21614 1.86972 8.21289 1.86972C8.2156 1.86676 8.21885 1.86429 8.22211 1.86133C8.22211 1.86281 8.22211 1.8638 8.22211 1.86528L8.22157 1.86478Z" fill="#404A5A"/>
		<path d="M8.21279 1.86914C8.21279 1.86914 8.21279 1.87062 8.21279 1.87112C8.21279 1.87309 8.21182 1.87408 8.21086 1.87457C8.2099 1.87507 8.20893 1.87507 8.20701 1.87457C8.20652 1.87457 8.20556 1.87457 8.20508 1.87359C8.20797 1.8721 8.21038 1.87062 8.21327 1.86914H8.21279Z" fill="#404A5A"/>
		<path d="M10.6991 1.21371C10.461 1.11864 10.2225 1.02401 9.98438 0.92852C9.97474 0.924631 9.9651 0.927656 9.95643 0.922903C9.94823 0.924631 9.93956 0.92636 9.93619 0.916854C9.92655 0.920742 9.91739 0.916854 9.90823 0.913829C9.69956 0.857656 9.48607 0.840372 9.26872 0.85031C8.98101 0.863705 8.70534 0.926792 8.43739 1.01969C8.35305 1.04864 8.27016 1.08062 8.1892 1.11475C8.16896 1.1234 8.14872 1.13204 8.12847 1.14111C8.10486 1.15148 8.08125 1.16185 8.05811 1.17309C8.02679 1.18735 7.99594 1.20204 7.96462 1.21716C7.80221 1.29667 7.64462 1.38525 7.49185 1.48031C7.46004 1.50019 7.42823 1.52006 7.39691 1.54037L7.37811 1.55247C7.30293 1.60173 7.2292 1.65185 7.15691 1.70371C6.9757 1.8329 6.80173 1.97031 6.63354 2.1142C6.16655 2.51389 5.75161 2.95506 5.37186 3.42259C5.36222 3.43469 5.35258 3.44722 5.34294 3.45932C5.34294 3.45932 5.34198 3.46235 5.34102 3.46321C5.34005 3.46408 5.33861 3.46451 5.33668 3.46494C5.30246 3.50858 5.26873 3.55179 5.23451 3.59543C5.17764 3.66803 5.12174 3.74062 5.0668 3.81451C5.01475 3.88451 4.96318 3.95537 4.91258 4.02624C4.8721 4.08241 4.83258 4.13901 4.79355 4.19605C4.75885 4.24704 4.72415 4.29759 4.68993 4.34858C4.64174 4.42074 4.59403 4.49333 4.5468 4.56678C4.52318 4.60351 4.50005 4.63981 4.47692 4.67697C4.47451 4.68129 4.47114 4.68518 4.46824 4.6895C4.46824 4.69425 4.46632 4.69814 4.46439 4.70203C4.46246 4.70462 4.46053 4.70765 4.45909 4.71024C4.4374 4.74481 4.4162 4.77981 4.39499 4.81481C4.31499 4.94573 4.23692 5.07796 4.16174 5.21104C4.12993 5.26722 4.09861 5.32382 4.06776 5.38043C3.90101 5.68635 3.74632 5.99703 3.60415 6.31203C3.52848 6.47925 3.45668 6.64777 3.38824 6.81715C3.3521 6.90703 3.31644 6.99734 3.28222 7.08808C3.21909 7.25573 3.16126 7.42469 3.10487 7.59407C3.08174 7.66364 3.05909 7.73364 3.0374 7.80364C3.03692 7.80536 3.03644 7.80709 3.03595 7.80882C3.00174 7.91857 2.96993 8.02876 2.94005 8.13938C2.91258 8.23876 2.88608 8.33857 2.8615 8.43882C2.84029 8.52438 2.82101 8.61036 2.80174 8.69635C2.7974 8.71666 2.79306 8.73697 2.78873 8.75771C2.7868 8.76592 2.78535 8.77413 2.78342 8.78234C2.78294 8.78536 2.78198 8.78839 2.7815 8.79185C2.77812 8.80827 2.77427 8.82425 2.77089 8.84067C2.74342 8.97506 2.71885 9.10987 2.69764 9.24555C2.67692 9.37648 2.65861 9.50697 2.64318 9.63833C2.63981 9.66771 2.63692 9.69709 2.63354 9.72648C2.63354 9.72864 2.63306 9.7308 2.63306 9.73296C2.63065 9.75543 2.62921 9.77141 2.62728 9.7874C2.62053 9.86043 2.61475 9.93388 2.60993 10.0069C2.60511 10.0804 2.60126 10.1538 2.59885 10.2273C2.59885 10.2368 2.59885 10.2463 2.59788 10.2558C2.59306 10.3971 2.5921 10.538 2.59692 10.6788C2.60174 10.8119 2.60993 10.9446 2.62391 11.0772C2.6374 11.2094 2.6562 11.3412 2.68174 11.473C2.69427 11.5374 2.70776 11.6014 2.72318 11.6649C2.77427 11.8792 2.84318 12.0892 2.93764 12.2923C2.94439 12.3065 2.95065 12.3204 2.95788 12.3346C2.96463 12.3485 2.97186 12.3627 2.97861 12.3765C2.99499 12.4094 3.01234 12.4418 3.03017 12.4738C3.06005 12.5273 3.09186 12.5796 3.12559 12.6306C3.21812 12.7706 3.32704 12.9007 3.4562 13.0182C3.48993 13.0493 3.52511 13.0787 3.56126 13.1068C3.62921 13.1599 3.7015 13.2088 3.77861 13.2524C3.79306 13.2606 3.80993 13.2654 3.82053 13.2779C3.82198 13.2796 3.82342 13.2818 3.82439 13.2839C3.83162 13.2826 3.83692 13.2839 3.83885 13.2909C3.86873 13.2973 3.89282 13.3155 3.92029 13.3263C4.0668 13.3846 4.21282 13.443 4.35933 13.5013C4.4427 13.5346 4.52656 13.567 4.61041 13.5998L4.62102 13.5912C4.59403 13.576 4.56608 13.5618 4.54005 13.5458C4.51258 13.5289 4.48656 13.5112 4.46053 13.4931C4.24222 13.341 4.07114 13.1513 3.93089 12.9365C3.84559 12.806 3.7762 12.6691 3.71644 12.5282C3.71499 12.5247 3.71354 12.5217 3.7121 12.5183C3.6321 12.3277 3.57379 12.1315 3.52993 11.9319C3.50632 11.8252 3.48752 11.7176 3.47114 11.6096C3.47017 11.6018 3.46873 11.5944 3.46776 11.5867C3.46005 11.5335 3.4533 11.4799 3.44704 11.4268C3.43788 11.3481 3.43114 11.2699 3.42632 11.1909C3.42535 11.1714 3.42391 11.152 3.42294 11.1325C3.42294 11.1278 3.42246 11.1226 3.42198 11.1178C3.41764 11.0089 3.4133 10.9001 3.41379 10.7912C3.41379 10.7851 3.41379 10.7791 3.41379 10.7735C3.41379 10.754 3.41379 10.7346 3.41475 10.7151C3.41764 10.6296 3.42053 10.5444 3.42439 10.4593C3.42632 10.4165 3.42873 10.3742 3.43162 10.3314C3.43451 10.2886 3.4374 10.2463 3.44077 10.2035C3.4533 10.0544 3.47017 9.90623 3.49041 9.75802C3.49764 9.70401 3.50535 9.65043 3.51403 9.59641C3.52318 9.53635 3.5333 9.47629 3.54391 9.41666C3.5521 9.36956 3.56077 9.32246 3.56993 9.27536C3.58005 9.22178 3.59114 9.16864 3.60222 9.11506C3.6162 9.04765 3.63114 8.98067 3.64656 8.91327C3.66439 8.83678 3.6827 8.75987 3.70198 8.68382C3.71933 8.61598 3.73716 8.54814 3.75595 8.4803C3.77668 8.40555 3.79788 8.3308 3.82005 8.25648C3.82535 8.23919 3.83114 8.22191 3.83692 8.20462C3.8427 8.18734 3.84848 8.17006 3.8533 8.15277C3.86342 8.11648 3.87162 8.08018 3.88608 8.04475C3.88945 8.04086 3.89475 8.03697 3.89523 8.03265C3.9068 7.94709 3.94101 7.86715 3.97041 7.78678C3.98342 7.75092 3.99595 7.71462 4.00848 7.67833C4.02583 7.62777 4.04318 7.57722 4.06101 7.52666C4.07547 7.48518 4.09041 7.4437 4.10632 7.40265C4.11258 7.38666 4.11836 7.37024 4.12463 7.35382C4.13282 7.33308 4.14101 7.31234 4.14921 7.2916C4.18391 7.20518 4.21764 7.11833 4.25282 7.03191C4.26728 6.99648 4.28222 6.96061 4.29716 6.92518C4.34873 6.80376 4.40174 6.6832 4.45668 6.56351C4.4721 6.52938 4.488 6.49567 4.50391 6.46197C4.51692 6.43475 4.52945 6.40796 4.54198 6.38073C4.57282 6.31678 4.60415 6.25283 4.63547 6.18888C4.66005 6.13876 4.68511 6.08907 4.71065 6.03894C4.72993 6.00049 4.74969 5.96289 4.76945 5.92444C4.82246 5.82246 4.87644 5.72135 4.93282 5.62067C4.94246 5.60296 4.95403 5.5861 4.96511 5.56925C4.9762 5.5524 4.98728 5.53512 4.99692 5.51697C5.16077 5.20543 5.35306 4.90771 5.55114 4.61302C5.56897 4.58666 5.58632 4.5603 5.60415 4.53394C5.64559 4.47259 5.68511 4.41037 5.73186 4.3529C5.76125 4.31704 5.78823 4.28074 5.81522 4.24358C5.84221 4.20685 5.86872 4.16969 5.89619 4.1334C5.95209 4.0608 6.00414 3.98562 6.05956 3.91259C6.06679 3.90309 6.07402 3.89358 6.08125 3.88408C6.11835 3.83611 6.15691 3.78901 6.1945 3.74148C6.1945 3.74105 6.1945 3.74062 6.1945 3.74019V3.73889C6.1945 3.73889 6.19739 3.7363 6.19884 3.73543C6.1998 3.73543 6.20076 3.73457 6.20173 3.73457C6.25619 3.66889 6.31064 3.60278 6.3651 3.5371C6.36751 3.53408 6.3704 3.53148 6.37281 3.52889C6.37426 3.52759 6.37522 3.5263 6.37619 3.52543C6.37956 3.52198 6.38293 3.51895 6.38631 3.5155C6.38631 3.51377 6.38631 3.51247 6.38631 3.51117C6.38631 3.50988 6.38631 3.50858 6.38679 3.50772C6.38775 3.50513 6.38872 3.5034 6.39016 3.50167C6.39161 3.49994 6.39402 3.49864 6.39595 3.49692C6.39835 3.49562 6.40076 3.49432 6.40317 3.49303C6.40462 3.49173 6.40558 3.49043 6.40655 3.48914C6.42775 3.46537 6.44944 3.44161 6.47064 3.41784C6.47305 3.41525 6.47546 3.41222 6.47787 3.40963C6.47787 3.4079 6.47884 3.40661 6.4798 3.40488C6.48028 3.40358 6.48125 3.40185 6.48221 3.40056C6.48414 3.39796 6.48655 3.39537 6.48896 3.39321C6.48896 3.39278 6.48992 3.39235 6.4904 3.39192C6.49956 3.38414 6.51113 3.37766 6.51354 3.36599C6.51354 3.36513 6.51354 3.36469 6.51354 3.36383C6.51354 3.36167 6.51546 3.35994 6.51739 3.35908C6.51835 3.35908 6.51932 3.35864 6.52028 3.35821C6.52655 3.35389 6.53233 3.34957 6.53715 3.34438C6.5386 3.34309 6.53956 3.34179 6.54052 3.34093C6.54438 3.33704 6.54775 3.33272 6.55113 3.3284C6.55546 3.32278 6.5598 3.31673 6.56414 3.31068C6.56751 3.30636 6.57088 3.30161 6.57426 3.29729C6.57667 3.29426 6.57908 3.29124 6.58149 3.28864C6.59787 3.2705 6.61474 3.25235 6.63113 3.23463C6.74679 3.10803 6.86582 2.98445 6.98823 2.86346C7.08414 2.7684 7.18341 2.67636 7.28366 2.58519C7.301 2.5692 7.31884 2.55321 7.33619 2.53766C7.36896 2.50827 7.40317 2.48105 7.43691 2.45296C7.4504 2.44173 7.4639 2.43093 7.47691 2.41926C7.4798 2.4171 7.48221 2.41451 7.4851 2.41235C7.52703 2.37605 7.56992 2.33975 7.61233 2.30389C7.61329 2.30303 7.61426 2.30259 7.61522 2.30173C7.62631 2.29266 7.63884 2.28445 7.6504 2.27624C7.65329 2.27408 7.6557 2.27192 7.6586 2.26932C7.65956 2.26846 7.66004 2.26803 7.66101 2.26716C7.67402 2.25506 7.68751 2.2434 7.70052 2.2313C7.70245 2.22871 7.70438 2.22698 7.70679 2.22568C7.7092 2.22438 7.71209 2.22352 7.71546 2.22352C7.71932 2.22309 7.72269 2.22136 7.72558 2.21963C7.72751 2.21834 7.72944 2.21661 7.73137 2.21488C7.73281 2.21358 7.73378 2.21185 7.73522 2.21013C7.73763 2.20753 7.74052 2.20451 7.74293 2.20192C7.77715 2.17469 7.81137 2.1479 7.84655 2.12154C7.85185 2.11766 7.85715 2.11377 7.86245 2.10945C7.89619 2.08395 7.9304 2.05889 7.9651 2.03383C8.04269 1.97809 8.12269 1.92408 8.20414 1.87309C8.20703 1.87179 8.20944 1.8705 8.21233 1.8692H8.21281C8.21522 1.86617 8.21811 1.86358 8.22101 1.86142C8.23932 1.84932 8.25811 1.83679 8.27643 1.82513C8.31354 1.80093 8.35161 1.77759 8.3892 1.75469C8.40799 1.74346 8.42727 1.73179 8.44655 1.72099C8.46582 1.70975 8.4851 1.69852 8.50438 1.68772C8.56269 1.65488 8.62149 1.6229 8.68125 1.59222C8.74631 1.55852 8.81281 1.52611 8.87932 1.495C9.0798 1.40253 9.28703 1.32432 9.5039 1.26642C9.52028 1.2621 9.53715 1.25778 9.55354 1.25346C9.6692 1.22451 9.78534 1.20247 9.90341 1.18821C9.9704 1.18 10.0384 1.17438 10.1063 1.17179C10.1574 1.16963 10.2085 1.1692 10.26 1.1705C10.2774 1.17093 10.2943 1.17136 10.3116 1.17222C10.3632 1.17482 10.4143 1.17957 10.4653 1.18605C10.5362 1.19469 10.6061 1.20679 10.6759 1.22278C10.6779 1.22235 10.6793 1.22192 10.6812 1.22278C10.6832 1.22278 10.6846 1.22408 10.6856 1.22537C10.687 1.2258 10.689 1.22624 10.6904 1.22667C10.6938 1.22753 10.6967 1.2284 10.7 1.22969C10.7 1.22537 10.7005 1.22105 10.701 1.21673C10.7 1.21587 10.6991 1.215 10.6976 1.21457L10.6991 1.21371Z" fill="#F1ECE2"/>
		<path d="M9.93532 0.917536C9.93195 0.904141 9.91749 0.902845 9.90689 0.898524C9.70159 0.816857 9.49629 0.734758 9.29002 0.653956C9.23508 0.632351 9.18207 0.607289 9.1252 0.590003C9.11894 0.59346 9.11219 0.593028 9.10544 0.590867C8.96424 0.549386 8.81773 0.528645 8.67026 0.520435C8.53484 0.51309 8.39894 0.520435 8.26448 0.536423C8.15364 0.549818 8.04472 0.570559 7.93677 0.596485C7.72713 0.647042 7.52569 0.715746 7.33147 0.801733C7.25677 0.835005 7.18448 0.872598 7.11075 0.907598C7.08617 0.919264 7.06063 0.929635 7.03701 0.942166C6.82593 1.05494 6.62111 1.17636 6.42689 1.31161C6.37822 1.34531 6.32858 1.37815 6.28328 1.41488C6.25388 1.43865 6.22544 1.46284 6.19364 1.48359C6.18785 1.48747 6.18159 1.49136 6.17436 1.49525C6.16906 1.49957 6.16376 1.50346 6.15846 1.50735V1.50821C6.15605 1.51383 6.15364 1.51902 6.14978 1.52204C6.14737 1.52377 6.14496 1.52463 6.14207 1.52507C6.14062 1.52507 6.1387 1.52507 6.13725 1.52507H6.13629C6.13629 1.52507 6.1334 1.5242 6.13147 1.52377C6.13002 1.52463 6.12858 1.5255 6.12761 1.52636C6.11075 1.53717 6.10159 1.55575 6.08617 1.56655C6.08376 1.56828 6.08135 1.56957 6.07894 1.57087C6.03846 1.58988 6.01388 1.62402 5.97773 1.64735C5.94304 1.66982 5.91412 1.69963 5.88231 1.72599C5.72471 1.85605 5.5758 1.99389 5.42833 2.13303C5.38302 2.17581 5.34254 2.22161 5.29917 2.26611C5.27411 2.29161 5.24616 2.31408 5.22158 2.33914C5.15459 2.40784 5.08953 2.47828 5.02351 2.54741C4.97435 2.59883 4.92809 2.65198 4.88423 2.70686C4.84953 2.7505 4.80809 2.78939 4.77098 2.8313C4.65869 2.9605 4.55218 3.09358 4.44568 3.22624C4.34062 3.35716 4.24423 3.49328 4.14447 3.62766C4.05483 3.74821 3.97242 3.87309 3.88712 3.99667C3.8558 4.04247 3.82784 4.09 3.79604 4.13581C3.74158 4.21445 3.69098 4.29525 3.64327 4.37735C3.61339 4.40932 3.59556 4.44822 3.5729 4.48408C3.52568 4.55927 3.48037 4.63532 3.43941 4.71353C3.4264 4.73859 3.4076 4.75976 3.39411 4.78482C3.35604 4.85439 3.31748 4.92396 3.27748 4.9931C3.17772 5.1668 3.09001 5.34526 2.99893 5.52285C2.90013 5.7147 2.81242 5.91131 2.72568 6.10791C2.66688 6.24143 2.6076 6.37495 2.56086 6.51235C2.55315 6.53482 2.53869 6.55513 2.53001 6.57717C2.48471 6.69556 2.43941 6.81353 2.39652 6.93235C2.35652 7.04168 2.31893 7.15186 2.28278 7.26205C2.24809 7.36834 2.21483 7.47464 2.18303 7.58137C2.12086 7.78834 2.06399 7.99661 2.01531 8.20618C2.00278 8.26192 1.99025 8.31766 1.97821 8.3734C1.93676 8.5631 1.90013 8.75408 1.87025 8.94594C1.8423 9.12828 1.81917 9.31106 1.80086 9.49427C1.79941 9.51112 1.79796 9.52797 1.79652 9.54482C1.78784 9.64507 1.7811 9.74575 1.77676 9.84686C1.77146 9.96223 1.7705 10.0776 1.76953 10.193C1.76953 10.2478 1.7758 10.3032 1.77531 10.3585C1.77435 10.4427 1.78254 10.5266 1.78784 10.6104C1.78977 10.6411 1.79122 10.6722 1.79459 10.7033C1.79507 10.7085 1.79604 10.7141 1.79652 10.7193C1.8076 10.8001 1.81483 10.8813 1.82736 10.9617C1.83941 11.0399 1.85146 11.1181 1.86736 11.1954C1.8905 11.3035 1.91218 11.4115 1.94929 11.5165C1.96086 11.5493 1.96712 11.5839 1.97772 11.6176C1.99989 11.6911 2.0264 11.7636 2.05531 11.8349C2.09724 11.9374 2.14543 12.0376 2.19748 12.1361C2.27796 12.2874 2.37772 12.4282 2.49483 12.5587C2.60568 12.6827 2.73242 12.792 2.87748 12.8837C2.88327 12.8875 2.88953 12.891 2.8958 12.8945C2.9064 12.9005 2.917 12.9066 2.9276 12.9126C2.93339 12.9161 2.93965 12.9195 2.94592 12.923C2.96616 12.9342 2.98592 12.9459 3.00519 12.9584C3.00519 12.9584 3.00568 12.9584 3.00616 12.9588C3.01194 12.9627 3.01772 12.9666 3.02351 12.9709C3.02351 12.9718 3.02447 12.9727 3.02495 12.9735C3.02833 12.9778 3.03507 12.9783 3.04037 12.9804C3.29098 13.0798 3.5411 13.1792 3.7917 13.2786C3.80182 13.2825 3.81146 13.2885 3.82351 13.2859C3.82206 13.2838 3.8211 13.282 3.81965 13.2799C3.80905 13.2674 3.79218 13.2626 3.77772 13.2544C3.7011 13.2107 3.62833 13.1619 3.56037 13.1088C3.52423 13.0807 3.48905 13.0509 3.45531 13.0202C3.32616 12.9027 3.21724 12.7722 3.12471 12.6326C3.09098 12.5816 3.05917 12.5293 3.02929 12.4757C3.01146 12.4438 2.99411 12.4114 2.97772 12.3785C2.9705 12.3643 2.96375 12.3504 2.957 12.3362C2.95025 12.3219 2.94351 12.3081 2.93676 12.2938C2.8423 12.0907 2.77387 11.8807 2.7223 11.6664C2.70688 11.6029 2.69339 11.539 2.68086 11.4746C2.6558 11.3432 2.637 11.2114 2.62303 11.0788C2.60905 10.9466 2.60086 10.8135 2.59604 10.6804C2.59122 10.5395 2.59218 10.3982 2.597 10.2574C2.59748 10.2478 2.59748 10.2383 2.59796 10.2288C2.60086 10.1554 2.60471 10.0819 2.60905 10.0085C2.61387 9.93544 2.61965 9.86198 2.6264 9.78896C2.62784 9.77297 2.62977 9.75698 2.63218 9.73452C2.63218 9.73236 2.63266 9.73019 2.63266 9.72803C2.63556 9.69865 2.63845 9.66927 2.6423 9.63989C2.65724 9.50853 2.67604 9.3776 2.69676 9.24711C2.71845 9.11143 2.74303 8.97661 2.77001 8.84223C2.77339 8.82581 2.77724 8.80982 2.78062 8.7934C2.7811 8.79038 2.78206 8.78735 2.78254 8.7839C2.78447 8.77569 2.78592 8.76748 2.78784 8.75927C2.79218 8.73853 2.79652 8.71822 2.80086 8.69791C2.81965 8.61192 2.83941 8.52593 2.86062 8.44038C2.88519 8.34013 2.9117 8.24032 2.93917 8.14093C2.96953 8.03032 3.00134 7.92013 3.03507 7.81038C3.03507 7.80865 3.03604 7.80692 3.03652 7.80519C3.05821 7.73519 3.08086 7.66519 3.10399 7.59563C3.16037 7.42624 3.21869 7.25729 3.28134 7.08964C3.31556 6.9989 3.35122 6.90859 3.38736 6.81871C3.4558 6.6489 3.5276 6.48038 3.60327 6.31359C3.74543 5.99859 3.89965 5.68791 4.06688 5.38198C4.09772 5.32538 4.12905 5.26877 4.16086 5.2126C4.23604 5.07952 4.31411 4.94729 4.39411 4.81637C4.41531 4.78137 4.437 4.74637 4.45821 4.7118C4.46013 4.70921 4.46206 4.70618 4.46351 4.70359C4.46592 4.6997 4.46784 4.69581 4.46736 4.69106C4.47025 4.68674 4.47363 4.68242 4.47604 4.67853C4.49917 4.6418 4.5223 4.60507 4.54592 4.56834C4.59315 4.49532 4.64037 4.42272 4.68905 4.35013C4.72327 4.29914 4.75796 4.24815 4.79266 4.1976C4.8317 4.14056 4.87122 4.08396 4.9117 4.02778C4.9623 3.95692 5.01387 3.88605 5.06592 3.81605C5.12086 3.74217 5.17676 3.66957 5.23363 3.59698C5.26736 3.55334 5.30158 3.51013 5.3358 3.46649C5.3358 3.46562 5.3358 3.46475 5.3358 3.46389C5.3358 3.46346 5.33628 3.4626 5.33676 3.46217C5.33772 3.46087 5.33965 3.46043 5.34158 3.46043C5.35122 3.44833 5.36037 3.43581 5.3705 3.42371C5.75026 2.95618 6.1652 2.51544 6.63219 2.11531C6.80038 1.97142 6.97388 1.83402 7.15557 1.70482C7.22785 1.65297 7.30159 1.60284 7.37677 1.55359L7.39557 1.54149C7.42689 1.52118 7.4587 1.5013 7.4905 1.48142C7.64376 1.38636 7.80087 1.29778 7.96328 1.21828C7.99412 1.20315 8.02544 1.18846 8.05677 1.1742C8.08038 1.1634 8.10352 1.1526 8.12713 1.14223C8.14737 1.13315 8.16761 1.12451 8.18785 1.11587C8.2693 1.08173 8.35171 1.04976 8.43605 1.02081C8.704 0.928338 8.97966 0.865252 9.26737 0.851425C9.48424 0.841054 9.69773 0.858338 9.90689 0.914943C9.91605 0.917536 9.9252 0.921425 9.93484 0.917968L9.93532 0.917536Z" fill="#FDBF41"/>
		<path d="M5.33756 3.4611C5.33756 3.4611 5.34082 3.45898 5.34299 3.45898C5.34299 3.4611 5.3419 3.46269 5.34082 3.46375C5.33973 3.4648 5.33811 3.46533 5.33594 3.46586C5.33594 3.4648 5.33594 3.46375 5.33594 3.46269C5.33594 3.46216 5.33648 3.4611 5.33702 3.46057L5.33756 3.4611Z" fill="#C18B00"/>
		<path d="M6.13616 1.51104C6.13905 1.50802 6.14243 1.50629 6.14724 1.50586C6.15014 1.50586 6.15399 1.50586 6.15785 1.50672V1.50759C6.15544 1.51321 6.15303 1.51839 6.14917 1.52141C6.14676 1.52314 6.14435 1.52401 6.14146 1.52444C6.14002 1.52444 6.13809 1.52444 6.13664 1.52444H6.13568C6.13568 1.52444 6.13279 1.52358 6.13086 1.52314C6.13182 1.51796 6.13375 1.51364 6.13664 1.51104H6.13616Z" fill="#C18B00"/>
		<path d="M9.07993 0.570599C8.89342 0.495846 8.70643 0.423253 8.52089 0.347636C8.30836 0.260784 8.08764 0.207204 7.8539 0.197266C7.79511 0.197266 7.73583 0.197266 7.67704 0.197698C7.6539 0.197698 7.63077 0.197698 7.60812 0.197698C7.49053 0.203315 7.37439 0.218871 7.2592 0.240908C6.91945 0.305723 6.6033 0.424982 6.30017 0.574488C5.99511 0.724858 5.71174 0.904611 5.44235 1.10165C5.40813 1.12671 5.37102 1.14961 5.34114 1.17986C5.33873 1.18072 5.33632 1.18245 5.33488 1.18461V1.1872C5.33488 1.1872 5.33391 1.1872 5.33343 1.1872C5.33247 1.1872 5.33199 1.1872 5.33199 1.1872C5.32427 1.19282 5.31656 1.19801 5.30885 1.20362C5.01054 1.43264 4.73343 1.68109 4.47126 1.94338C4.15994 2.25535 3.87271 2.58461 3.60427 2.92683C3.20427 3.43671 2.85006 3.97165 2.53439 4.52689C2.32138 4.90108 2.12765 5.28349 1.95319 5.67368C1.7715 6.08071 1.60476 6.49294 1.47078 6.9151C1.45584 6.96176 1.43753 7.008 1.42259 7.05466C1.31271 7.4025 1.21777 7.75337 1.14307 8.10855C1.07945 8.40973 1.02885 8.7122 0.995599 9.01726C0.971021 9.23849 0.954154 9.46016 0.955117 9.68269C0.955117 9.7838 0.955599 9.88491 0.956081 9.98602C0.957527 9.99985 0.958009 10.0137 0.958491 10.0275C0.958973 10.0491 0.958491 10.0703 0.957527 10.0919C0.958491 10.215 0.970057 10.3373 0.983069 10.46C1.00476 10.6601 1.03849 10.858 1.08813 11.0537C1.14982 11.2992 1.23415 11.5373 1.35415 11.765C1.48283 12.0087 1.6462 12.2303 1.86693 12.4157C1.9956 12.5237 2.13729 12.6149 2.2968 12.6819C2.43849 12.7415 2.58211 12.7973 2.72572 12.8539C2.82403 12.8928 2.92138 12.9347 3.02162 12.9692C3.01584 12.9653 3.01006 12.961 3.00427 12.9571C3.00427 12.9571 3.00379 12.9571 3.00331 12.9567C2.98403 12.9442 2.96427 12.9325 2.94403 12.9213C2.93777 12.9178 2.93199 12.9144 2.92572 12.9109C2.91512 12.9049 2.90452 12.8992 2.89391 12.8928C2.88765 12.8893 2.88187 12.8854 2.8756 12.8819C2.73054 12.7899 2.60427 12.681 2.49295 12.557C2.37584 12.4265 2.27608 12.2857 2.1956 12.1344C2.14307 12.0359 2.09488 11.9357 2.05343 11.8332C2.02452 11.7619 1.99801 11.6894 1.97584 11.6159C1.96572 11.5826 1.95897 11.5481 1.94741 11.5148C1.9103 11.4098 1.88813 11.3018 1.86548 11.1937C1.84909 11.1164 1.83753 11.0382 1.82548 10.96C1.81295 10.8796 1.80524 10.7984 1.79464 10.7176C1.79415 10.7124 1.79319 10.7068 1.79271 10.7016C1.78933 10.6709 1.78789 10.6398 1.78596 10.6087C1.78114 10.5248 1.77295 10.441 1.77343 10.3568C1.77343 10.3019 1.76717 10.2466 1.76765 10.1913C1.76861 10.0759 1.77006 9.96053 1.77488 9.84516C1.77921 9.74448 1.78596 9.6438 1.79464 9.54312C1.79608 9.52627 1.79753 9.50942 1.79897 9.49257C1.81729 9.30936 1.84042 9.12658 1.86837 8.94423C1.89825 8.75238 1.93488 8.56139 1.97632 8.3717C1.98837 8.31596 2.0009 8.26022 2.01343 8.20448C2.06162 7.99448 2.11897 7.78664 2.18114 7.57966C2.21295 7.47294 2.2462 7.36621 2.2809 7.26034C2.31705 7.14973 2.35464 7.03997 2.39464 6.93065C2.43801 6.81183 2.48331 6.69343 2.52813 6.57547C2.53632 6.553 2.55126 6.53269 2.55897 6.51065C2.6062 6.37324 2.665 6.23973 2.72379 6.10621C2.81054 5.9096 2.89825 5.71343 2.99705 5.52115C3.08813 5.34399 3.17584 5.1651 3.2756 4.99139C3.31512 4.92226 3.35415 4.85269 3.39223 4.78312C3.40572 4.75849 3.425 4.73689 3.43753 4.71183C3.47849 4.63362 3.52379 4.55757 3.57102 4.48239C3.59367 4.44653 3.6115 4.40764 3.64138 4.37566C3.68909 4.29356 3.7397 4.21276 3.79415 4.13412C3.82596 4.08875 3.85391 4.04078 3.88524 3.99498C3.97006 3.8714 4.05247 3.74696 4.14259 3.62597C4.24235 3.49159 4.33873 3.35548 4.44379 3.22455C4.5503 3.0919 4.6568 2.95881 4.76909 2.82961C4.80572 2.78727 4.84717 2.74881 4.88235 2.70517C4.9262 2.65029 4.97247 2.59714 5.02162 2.54572C5.08765 2.47615 5.15271 2.40572 5.2197 2.33745C5.24427 2.31239 5.27223 2.28992 5.29729 2.26443C5.34066 2.22035 5.38114 2.17412 5.42644 2.13134C5.57391 1.9922 5.72283 1.85436 5.88041 1.7243C5.91222 1.69794 5.94113 1.66813 5.97583 1.64566C6.01198 1.62233 6.03607 1.58819 6.07704 1.56918C6.07945 1.56788 6.08234 1.56659 6.08427 1.56486C6.09969 1.55406 6.10884 1.53548 6.12571 1.52467C6.12716 1.52381 6.1286 1.52294 6.12957 1.52208C6.13053 1.5169 6.13246 1.51257 6.13535 1.50998C6.13824 1.50696 6.14161 1.50523 6.14643 1.5048C6.14933 1.5048 6.15318 1.5048 6.15704 1.50566C6.16234 1.50177 6.16764 1.49745 6.17294 1.49356C6.18017 1.48924 6.18595 1.48578 6.19222 1.4819C6.22402 1.46115 6.25246 1.43739 6.28186 1.41319C6.32716 1.37603 6.37728 1.34362 6.42547 1.30992C6.61969 1.17467 6.82451 1.05325 7.03559 0.940476C7.05969 0.927945 7.08475 0.917575 7.10933 0.905908C7.18306 0.870476 7.25535 0.832883 7.33005 0.800044C7.52427 0.714056 7.72619 0.645352 7.93535 0.594797C8.0433 0.568871 8.15222 0.548562 8.26306 0.534735C8.39752 0.518315 8.53342 0.511402 8.66884 0.518747C8.8168 0.526957 8.96282 0.547698 9.10402 0.589179C9.11125 0.59134 9.11752 0.591772 9.12378 0.588315C9.11174 0.576649 9.09342 0.576648 9.07848 0.570599H9.07993Z" fill="#FF1100"/>
		<path d="M6.13967 1.46288C6.13967 1.46288 6.13756 1.46133 6.13672 1.46094C6.13798 1.46171 6.13883 1.4621 6.13967 1.46288Z" fill="#FF1100"/>
		<path d="M7.85463 0.198342H7.67776C7.65463 0.19933 7.63149 0.19933 7.60884 0.19933C7.60788 0.196367 7.60643 0.193404 7.60547 0.190441C7.68932 0.190441 7.77366 0.190441 7.85752 0.189453C7.85655 0.192416 7.85559 0.195379 7.85463 0.198342Z" fill="#FEC35E"/>
		<path d="M5.33386 1.18893H5.33203V1.18555H5.3363V1.1895C5.3363 1.1895 5.33508 1.1895 5.33447 1.1895L5.33386 1.18893Z" fill="#C18B00"/>
		<path opacity="0.48" d="M15.5584 10.9753C15.5825 10.9584 15.5825 10.9567 15.5584 10.9399C15.5025 10.8997 15.4427 10.8647 15.3815 10.8314C15.1772 10.7204 14.9589 10.6357 14.7353 10.5622C14.6842 10.5454 14.6345 10.5251 14.5801 10.5164C14.5651 10.5013 14.543 10.5 14.5237 10.4944C14.315 10.4321 14.1025 10.3812 13.8895 10.3323C13.8716 10.331 13.8543 10.3276 13.8389 10.3198C13.7391 10.3004 13.6393 10.2805 13.5401 10.261C13.3555 10.2252 13.17 10.1941 12.9839 10.166C12.8461 10.1452 12.7078 10.1258 12.5695 10.1072C12.4615 10.093 12.3536 10.0783 12.2447 10.0713C12.2268 10.0688 12.209 10.0657 12.1907 10.0636C11.8095 10.0217 11.4278 9.99011 11.0447 9.96635C10.7945 9.95122 10.5444 9.93912 10.2938 9.93048C9.96658 9.91925 9.63887 9.91406 9.31116 9.91406C8.90489 9.91406 8.49911 9.92314 8.09381 9.94085C7.62537 9.96116 7.1579 9.99314 6.69188 10.0398C6.61574 10.0476 6.53863 10.0519 6.46345 10.0666C6.44802 10.0627 6.43308 10.0666 6.41766 10.0679C6.08561 10.1046 5.75501 10.15 5.42635 10.2057C5.23213 10.2386 5.03888 10.2749 4.84707 10.3159L4.84321 10.3215C4.84321 10.3215 4.79358 10.9619 4.90346 11.5871C5.09285 11.6273 5.28321 11.6632 5.47406 11.6952C5.64466 11.7237 5.81574 11.7509 5.98778 11.773C6.22875 11.8041 6.47019 11.8356 6.7126 11.8581C6.94827 11.8801 7.18345 11.903 7.41959 11.9186C7.55935 11.9276 7.69863 11.9384 7.83839 11.9458C8.04513 11.9566 8.25236 11.9657 8.45911 11.9721C8.64802 11.9782 8.83694 11.983 9.02586 11.9851C9.32802 11.9886 9.63067 11.9873 9.93284 11.9817C10.2239 11.976 10.515 11.9661 10.8056 11.9514C11.1521 11.9341 11.4981 11.9095 11.8437 11.8775C12.3704 11.8287 12.8943 11.763 13.4133 11.6701C13.8668 11.5889 14.315 11.4895 14.7497 11.346C14.9391 11.2838 15.1247 11.2125 15.301 11.1244C15.3907 11.0799 15.4774 11.0315 15.5584 10.9749V10.9753Z" fill="url(#paint0_linear_674_875)"/>
	</g>
	<defs>
		<linearGradient id="paint0_linear_674_875" x1="10.2279" y1="10.1521" x2="10.1741" y2="11.7026" gradientUnits="userSpaceOnUse">
			<stop offset="0.16" stop-color="#191919"/>
			<stop offset="0.97" stop-color="#191919" stop-opacity="0"/>
		</linearGradient>
		<clipPath id="clip0_674_875">
			<rect width="16" height="14" fill="white" transform="translate(0.925781 0.167969)"/>
		</clipPath>
	</defs>
</svg>
